<svg xmlns="http://www.w3.org/2000/svg" xmlns:xlink="http://www.w3.org/1999/xlink" xmlns:lucid="lucid" width="2562" height="1781.42"><g transform="translate(1801 -139)" lucid:page-tab-id="0_0"><path d="M-2000 0h3000v2000h-3000z" fill="#fff"/><path d="M-1300 146a6 6 0 0 1 6-6h348a6 6 0 0 1 6 6v316a6 6 0 0 1-6 6h-348a6 6 0 0 1-6-6z" stroke="#3a414a" stroke-width="2" fill="#fff"/><path d="M-1300 176.97h360m-360 226.26h360" stroke="#3a414a" stroke-width="2" fill="none"/><use xlink:href="#a" transform="matrix(1,0,0,1,-1292,148) translate(152.11067708333334 16.805338541666668)"/><use xlink:href="#b" transform="matrix(1,0,0,1,-1288,184.97265625) translate(0 27.914713541666668)"/><use xlink:href="#c" transform="matrix(1,0,0,1,-1288,184.97265625) translate(15.852213541666668 27.914713541666668)"/><use xlink:href="#d" transform="matrix(1,0,0,1,-1288,184.97265625) translate(35.538411458333336 27.914713541666668)"/><use xlink:href="#b" transform="matrix(1,0,0,1,-1288,184.97265625) translate(0 48.88736979166667)"/><use xlink:href="#e" transform="matrix(1,0,0,1,-1288,184.97265625) translate(15.852213541666668 48.88736979166667)"/><use xlink:href="#d" transform="matrix(1,0,0,1,-1288,184.97265625) translate(106.43750000000001 48.88736979166667)"/><use xlink:href="#b" transform="matrix(1,0,0,1,-1288,184.97265625) translate(0 69.86002604166667)"/><use xlink:href="#f" transform="matrix(1,0,0,1,-1288,184.97265625) translate(15.852213541666668 69.86002604166667)"/><use xlink:href="#g" transform="matrix(1,0,0,1,-1288,184.97265625) translate(103.22981770833336 69.86002604166667)"/><use xlink:href="#h" transform="matrix(1,0,0,1,-1288,184.97265625) translate(0 90.83268229166667)"/><use xlink:href="#i" transform="matrix(1,0,0,1,-1288,184.97265625) translate(15.852213541666668 90.83268229166667)"/><use xlink:href="#j" transform="matrix(1,0,0,1,-1288,184.97265625) translate(64.14518229166667 90.83268229166667)"/><use xlink:href="#b" transform="matrix(1,0,0,1,-1288,184.97265625) translate(0 111.80533854166667)"/><use xlink:href="#k" transform="matrix(1,0,0,1,-1288,184.97265625) translate(15.852213541666668 111.80533854166667)"/><use xlink:href="#d" transform="matrix(1,0,0,1,-1288,184.97265625) translate(100.6569010416667 111.80533854166667)"/><use xlink:href="#b" transform="matrix(1,0,0,1,-1288,184.97265625) translate(0 132.77799479166666)"/><use xlink:href="#l" transform="matrix(1,0,0,1,-1288,184.97265625) translate(15.852213541666668 132.77799479166666)"/><use xlink:href="#m" transform="matrix(1,0,0,1,-1288,184.97265625) translate(78.94791666666667 132.77799479166666)"/><use xlink:href="#b" transform="matrix(1,0,0,1,-1288,184.97265625) translate(0 153.75065104166666)"/><use xlink:href="#n" transform="matrix(1,0,0,1,-1288,184.97265625) translate(15.852213541666668 153.75065104166666)"/><use xlink:href="#o" transform="matrix(1,0,0,1,-1288,184.97265625) translate(51.66145833333334 153.75065104166666)"/><use xlink:href="#b" transform="matrix(1,0,0,1,-1288,184.97265625) translate(0 174.72330729166666)"/><use xlink:href="#p" transform="matrix(1,0,0,1,-1288,184.97265625) translate(15.852213541666668 174.72330729166666)"/><use xlink:href="#q" transform="matrix(1,0,0,1,-1288,184.97265625) translate(106.40364583333336 174.72330729166666)"/><use xlink:href="#b" transform="matrix(1,0,0,1,-1288,184.97265625) translate(0 195.69596354166666)"/><use xlink:href="#r" transform="matrix(1,0,0,1,-1288,184.97265625) translate(15.852213541666668 195.69596354166666)"/><use xlink:href="#s" transform="matrix(1,0,0,1,-1288,184.97265625) translate(111.46484375000001 195.69596354166666)"/><path d="M-1300 626a6 6 0 0 1 6-6h348a6 6 0 0 1 6 6v148a6 6 0 0 1-6 6h-348a6 6 0 0 1-6-6z" stroke="#3a414a" stroke-width="2" fill="#fff"/><path d="M-1300 656.97h360m-360 58.48h360" stroke="#3a414a" stroke-width="2" fill="none"/><use xlink:href="#t" transform="matrix(1,0,0,1,-1292,628) translate(138.560546875 16.805338541666668)"/><use xlink:href="#u" transform="matrix(1,0,0,1,-1288,664.97265625) translate(0 27.805338541666668)"/><use xlink:href="#v" transform="matrix(1,0,0,1,-1288,664.97265625) translate(12.847656250000002 27.805338541666668)"/><use xlink:href="#w" transform="matrix(1,0,0,1,-1288,664.97265625) translate(68.04687500000001 27.805338541666668)"/><path d="M-1600 618.5V550a6 6 0 0 1 6-6h468a6 6 0 0 0 6-6v-54.5" stroke="#3a414a" fill="none"/><path d="M-1599.53 619h-.94v-.5h.94z" stroke="#3a414a" stroke-width=".05" fill="#3a414a"/><path d="M-1120 470l7.5 13h-15z" stroke="#3a414a" fill="#fff"/><path d="M-1800 626a6 6 0 0 1 6-6h388a6 6 0 0 1 6 6v175a6 6 0 0 1-6 6h-388a6 6 0 0 1-6-6z" stroke="#3a414a" stroke-width="2" fill="#fff"/><path d="M-1800 656.97h400m-400 58.48h400" stroke="#3a414a" stroke-width="2" fill="none"/><use xlink:href="#x" transform="matrix(1,0,0,1,-1792,628) translate(153.57975260416666 16.805338541666668)"/><use xlink:href="#y" transform="matrix(1,0,0,1,-1788,723.4453125) translate(0 32.63975694444444)"/><use xlink:href="#z" transform="matrix(1,0,0,1,-1788,723.4453125) translate(20.95269097222222 32.63975694444444)"/><use xlink:href="#A" transform="matrix(1,0,0,1,-1788,723.4453125) translate(215.0390625 32.63975694444444)"/><use xlink:href="#y" transform="matrix(1,0,0,1,-1788,723.4453125) translate(0 59.52777777777778)"/><use xlink:href="#B" transform="matrix(1,0,0,1,-1788,723.4453125) translate(20.95269097222222 59.52777777777778)"/><path d="M-1300 1389a6 6 0 0 1 6-6h348a6 6 0 0 1 6 6v217a6 6 0 0 1-6 6h-348a6 6 0 0 1-6-6z" stroke="#3a414a" stroke-width="2" fill="#fff"/><path d="M-1300 1419.97h360m-360 100.42h360" stroke="#3a414a" stroke-width="2" fill="none"/><use xlink:href="#C" transform="matrix(1,0,0,1,-1292,1391.00005) translate(148.5009765625 16.805338541666668)"/><use xlink:href="#u" transform="matrix(1,0,0,1,-1288,1427.97270625) translate(0 27.832682291666664)"/><use xlink:href="#c" transform="matrix(1,0,0,1,-1288,1427.97270625) translate(12.847656250000002 27.832682291666664)"/><use xlink:href="#d" transform="matrix(1,0,0,1,-1288,1427.97270625) translate(32.53385416666667 27.832682291666664)"/><use xlink:href="#u" transform="matrix(1,0,0,1,-1288,1427.97270625) translate(0 48.80533854166667)"/><use xlink:href="#D" transform="matrix(1,0,0,1,-1288,1427.97270625) translate(12.847656250000002 48.80533854166667)"/><use xlink:href="#d" transform="matrix(1,0,0,1,-1288,1427.97270625) translate(62.985677083333336 48.80533854166667)"/><use xlink:href="#u" transform="matrix(1,0,0,1,-1288,1427.97270625) translate(0 69.77799479166667)"/><use xlink:href="#E" transform="matrix(1,0,0,1,-1288,1427.97270625) translate(12.847656250000002 69.77799479166667)"/><use xlink:href="#w" transform="matrix(1,0,0,1,-1288,1427.97270625) translate(60.996744791666664 69.77799479166667)"/><use xlink:href="#y" transform="matrix(1,0,0,1,-1288,1528.390675) translate(0 32.63975694444444)"/><use xlink:href="#F" transform="matrix(1,0,0,1,-1288,1528.390675) translate(20.95269097222222 32.63975694444444)"/><use xlink:href="#G" transform="matrix(1,0,0,1,-1288,1528.390675) translate(238.2595486111111 32.63975694444444)"/><use xlink:href="#y" transform="matrix(1,0,0,1,-1288,1528.390675) translate(0 59.52777777777778)"/><use xlink:href="#H" transform="matrix(1,0,0,1,-1288,1528.390675) translate(20.95269097222222 59.52777777777778)"/><use xlink:href="#I" transform="matrix(1,0,0,1,-1288,1528.390675) translate(263.47656249999994 59.52777777777778)"/><path d="M-480 1618a6 6 0 0 1 6-6h388a6 6 0 0 1 6 6v232a6 6 0 0 1-6 6h-388a6 6 0 0 1-6-6z" stroke="#3a414a" stroke-width="2" fill="#fff"/><path d="M-480 1648.97h400m-400 142.37h400" stroke="#3a414a" stroke-width="2" fill="none"/><use xlink:href="#J" transform="matrix(1,0,0,1,-471.9999999999999,1620.00005) translate(158.3955078125 16.805338541666668)"/><use xlink:href="#u" transform="matrix(1,0,0,1,-467.9999999999999,1656.97270625) translate(0 27.860026041666668)"/><use xlink:href="#c" transform="matrix(1,0,0,1,-467.9999999999999,1656.97270625) translate(12.847656250000002 27.860026041666668)"/><use xlink:href="#K" transform="matrix(1,0,0,1,-467.9999999999999,1656.97270625) translate(32.53385416666667 27.860026041666668)"/><use xlink:href="#u" transform="matrix(1,0,0,1,-467.9999999999999,1656.97270625) translate(0 48.83268229166667)"/><use xlink:href="#L" transform="matrix(1,0,0,1,-467.9999999999999,1656.97270625) translate(12.847656250000002 48.83268229166667)"/><use xlink:href="#M" transform="matrix(1,0,0,1,-467.9999999999999,1656.97270625) translate(53.67578125000001 48.83268229166667)"/><use xlink:href="#u" transform="matrix(1,0,0,1,-467.9999999999999,1656.97270625) translate(0 69.80533854166667)"/><use xlink:href="#N" transform="matrix(1,0,0,1,-467.9999999999999,1656.97270625) translate(12.847656250000002 69.80533854166667)"/><use xlink:href="#O" transform="matrix(1,0,0,1,-467.9999999999999,1656.97270625) translate(97.88932291666669 69.80533854166667)"/><use xlink:href="#u" transform="matrix(1,0,0,1,-467.9999999999999,1656.97270625) translate(0 90.77799479166667)"/><use xlink:href="#P" transform="matrix(1,0,0,1,-467.9999999999999,1656.97270625) translate(12.847656250000002 90.77799479166667)"/><use xlink:href="#O" transform="matrix(1,0,0,1,-467.9999999999999,1656.97270625) translate(91.74479166666669 90.77799479166667)"/><use xlink:href="#u" transform="matrix(1,0,0,1,-467.9999999999999,1656.97270625) translate(0 111.75065104166667)"/><use xlink:href="#Q" transform="matrix(1,0,0,1,-467.9999999999999,1656.97270625) translate(12.847656250000002 111.75065104166667)"/><use xlink:href="#R" transform="matrix(1,0,0,1,-467.9999999999999,1656.97270625) translate(54.19205729166667 111.75065104166667)"/><path d="M400 594.5a6 6 0 0 1 6-6h348a6 6 0 0 1 6 6v211a6 6 0 0 1-6 6H406a6 6 0 0 1-6-6z" stroke="#3a414a" stroke-width="2" fill="#fff"/><path d="M400 625.47h360m-360 121.4h360" stroke="#3a414a" stroke-width="2" fill="none"/><use xlink:href="#S" transform="matrix(1,0,0,1,408,596.5) translate(132.10709635416669 16.805338541666668)"/><use xlink:href="#u" transform="matrix(1,0,0,1,412,633.47265625) translate(0 27.846354166666668)"/><use xlink:href="#c" transform="matrix(1,0,0,1,412,633.47265625) translate(12.847656250000002 27.846354166666668)"/><use xlink:href="#d" transform="matrix(1,0,0,1,412,633.47265625) translate(32.53385416666667 27.846354166666668)"/><use xlink:href="#u" transform="matrix(1,0,0,1,412,633.47265625) translate(0 48.81901041666667)"/><use xlink:href="#T" transform="matrix(1,0,0,1,412,633.47265625) translate(12.847656250000002 48.81901041666667)"/><use xlink:href="#d" transform="matrix(1,0,0,1,412,633.47265625) translate(47.56510416666667 48.81901041666667)"/><use xlink:href="#u" transform="matrix(1,0,0,1,412,633.47265625) translate(0 69.79166666666667)"/><use xlink:href="#U" transform="matrix(1,0,0,1,412,633.47265625) translate(12.847656250000002 69.79166666666667)"/><use xlink:href="#d" transform="matrix(1,0,0,1,412,633.47265625) translate(109.60286458333336 69.79166666666667)"/><use xlink:href="#u" transform="matrix(1,0,0,1,412,633.47265625) translate(0 90.76432291666667)"/><use xlink:href="#V" transform="matrix(1,0,0,1,412,633.47265625) translate(12.847656250000002 90.76432291666667)"/><use xlink:href="#w" transform="matrix(1,0,0,1,412,633.47265625) translate(87.56380208333334 90.76432291666667)"/><path d="M-1140 1744.42a6 6 0 0 1 6-6h348a6 6 0 0 1 6 6v169a6 6 0 0 1-6 6h-348a6 6 0 0 1-6-6z" stroke="#3a414a" stroke-width="2" fill="#fff"/><path d="M-1140 1775.4h360m-360 79.44h360" stroke="#3a414a" stroke-width="2" fill="none"/><use xlink:href="#W" transform="matrix(1,0,0,1,-1132,1746.4191340010589) translate(123.09765625 16.805338541666668)"/><use xlink:href="#u" transform="matrix(1,0,0,1,-1128,1783.3917902510589) translate(0 27.819010416666664)"/><use xlink:href="#c" transform="matrix(1,0,0,1,-1128,1783.3917902510589) translate(12.847656250000002 27.819010416666664)"/><use xlink:href="#d" transform="matrix(1,0,0,1,-1128,1783.3917902510589) translate(32.53385416666667 27.819010416666664)"/><use xlink:href="#u" transform="matrix(1,0,0,1,-1128,1783.3917902510589) translate(0 48.791666666666664)"/><use xlink:href="#X" transform="matrix(1,0,0,1,-1128,1783.3917902510589) translate(12.847656250000002 48.791666666666664)"/><use xlink:href="#Y" transform="matrix(1,0,0,1,-1128,1783.3917902510589) translate(67.42903645833334 48.791666666666664)"/><path d="M-1120 618.5v-135" stroke="#3a414a" fill="none"/><path d="M-1119.53 619h-.94v-.5h.94z" stroke="#3a414a" stroke-width=".05" fill="#3a414a"/><path d="M-1120 470l7.5 13h-15z" stroke="#3a414a" fill="#fff"/><path d="M40 618.5V550a6 6 0 0 0-6-6h-1148a6 6 0 0 1-6-6v-54.5" stroke="#3a414a" fill="none"/><path d="M40.48 619h-.95v-.5h.95z" stroke="#3a414a" stroke-width=".05" fill="#3a414a"/><path d="M-1120 470l7.5 13h-15z" stroke="#3a414a" fill="#fff"/><path d="M-18.02 1663.5h-30.6v-.95h30.6zm58.5-6.45l-.08 1-.24.98-.4.94-.52.86-.66.78-.77.67-.86.53-.94.4-1 .22-.98.08h-44.37v-.95h44.33l.88-.07.85-.2.8-.33.75-.45.66-.57.57-.66.45-.73.33-.8.2-.85.07-.9V830.76h.95zm0-847.8h-.95V781.5h.95z" stroke="#3a414a" stroke-width=".05" fill="#3a414a"/><path d="M40.48 781.5h-.95v-.5h.95z" fill="#3a414a"/><path stroke="#3a414a" stroke-width=".05" fill="#3a414a"/><path d="M-48.6 1663.03l-14.84 14.85-14.85-14.85 14.86-14.85z" fill="#fff"/><path d="M-47.92 1663.03l-15.52 15.52-15.53-15.52 15.53-15.52zm-29.7 0l14.18 14.17 14.17-14.17-14.17-14.18z" stroke="#3a414a" stroke-width=".05" fill="#3a414a"/><use xlink:href="#Z" transform="matrix(1,0,0,1,-18.01514511524494,1652.272005135442) translate(0 17.22222222222222)"/><use xlink:href="#aa" transform="matrix(1,0,0,1,25.260416666666664,809.2430607431928) translate(0 17.22222222222222)"/><path d="M-940 906a6 6 0 0 1 6-6h348a6 6 0 0 1 6 6v211a6 6 0 0 1-6 6h-348a6 6 0 0 1-6-6z" stroke="#3a414a" stroke-width="2" fill="#fff"/><path d="M-940 936.97h360m-360 121.4h360" stroke="#3a414a" stroke-width="2" fill="none"/><use xlink:href="#ab" transform="matrix(1,0,0,1,-932,908) translate(146.42740885416666 16.805338541666668)"/><g><use xlink:href="#u" transform="matrix(1,0,0,1,-928,944.97265625) translate(0 27.846354166666668)"/><use xlink:href="#c" transform="matrix(1,0,0,1,-928,944.97265625) translate(12.847656250000002 27.846354166666668)"/><use xlink:href="#d" transform="matrix(1,0,0,1,-928,944.97265625) translate(32.53385416666667 27.846354166666668)"/><use xlink:href="#u" transform="matrix(1,0,0,1,-928,944.97265625) translate(0 48.81901041666667)"/><use xlink:href="#L" transform="matrix(1,0,0,1,-928,944.97265625) translate(12.847656250000002 48.81901041666667)"/><use xlink:href="#M" transform="matrix(1,0,0,1,-928,944.97265625) translate(53.67578125000001 48.81901041666667)"/><use xlink:href="#u" transform="matrix(1,0,0,1,-928,944.97265625) translate(0 69.79166666666667)"/><use xlink:href="#ac" transform="matrix(1,0,0,1,-928,944.97265625) translate(12.847656250000002 69.79166666666667)"/><use xlink:href="#ad" transform="matrix(1,0,0,1,-928,944.97265625) translate(65.33007812500001 69.79166666666667)"/><use xlink:href="#u" transform="matrix(1,0,0,1,-928,944.97265625) translate(0 90.76432291666667)"/><use xlink:href="#ae" transform="matrix(1,0,0,1,-928,944.97265625) translate(12.847656250000002 90.76432291666667)"/><use xlink:href="#af" transform="matrix(1,0,0,1,-928,944.97265625) translate(94.40234375000001 90.76432291666667)"/></g><path d="M-660 646a6 6 0 0 1 6-6h348a6 6 0 0 1 6 6v169a6 6 0 0 1-6 6h-348a6 6 0 0 1-6-6z" stroke="#3a414a" stroke-width="2" fill="#fff"/><path d="M-660 676.97h360m-360 79.45h360" stroke="#3a414a" stroke-width="2" fill="none"/><g><use xlink:href="#ag" transform="matrix(1,0,0,1,-652,648) translate(139.68196614583331 16.805338541666668)"/></g><g><use xlink:href="#u" transform="matrix(1,0,0,1,-648,684.97265625) translate(0 27.819010416666664)"/><use xlink:href="#c" transform="matrix(1,0,0,1,-648,684.97265625) translate(12.847656250000002 27.819010416666664)"/><use xlink:href="#d" transform="matrix(1,0,0,1,-648,684.97265625) translate(32.53385416666667 27.819010416666664)"/><use xlink:href="#u" transform="matrix(1,0,0,1,-648,684.97265625) translate(0 48.791666666666664)"/><use xlink:href="#ah" transform="matrix(1,0,0,1,-648,684.97265625) translate(12.847656250000002 48.791666666666664)"/><use xlink:href="#w" transform="matrix(1,0,0,1,-648,684.97265625) translate(77.61067708333333 48.791666666666664)"/></g><path d="M-1119.53 1351.63h-.94v-24.04h.94zm0-45.55h-.94V904.25h.94zm0-423.34h-.94V781.5h.94z" stroke="#3a414a" stroke-width=".05" fill="#3a414a"/><path d="M-1119.53 781.5h-.94v-.5h.94z" fill="#3a414a"/><path stroke="#3a414a" stroke-width=".05" fill="#3a414a"/><path d="M-1105.15 1366.44l-14.85 14.85-14.85-14.86 14.85-14.85z" fill="#fff"/><path d="M-1104.48 1366.44l-15.52 15.52-15.52-15.52 15.52-15.52zm-29.7 0l14.18 14.18 14.18-14.18-14.18-14.17z" stroke="#3a414a" stroke-width=".05" fill="#3a414a"/><g><use xlink:href="#Z" transform="matrix(1,0,0,1,-1123.8324652777778,1306.0785885350656) translate(0 17.22222222222222)"/></g><g><use xlink:href="#aa" transform="matrix(1,0,0,1,-1134.7395833333333,882.7428735537843) translate(0 17.22222222222222)"/></g><path d="M-1085.68 1663.15l.07.88.2.84.32.8.46.74.56.67.66.57.74.45.8.32.84.2.88.07h548.17v.94h-548.2l-1-.08-1-.23-.93-.4-.86-.52-.77-.65-.66-.78-.53-.86-.38-.93-.25-1-.08-.98v-8.2h.95zm574.3 5.54v.94h-12.92v-.95zm-574.3-35.22h-.95v-19.98h.95z" stroke="#3a414a" stroke-width=".05" fill="#3a414a"/><path d="M-1085.68 1613.5h-.95v-.5h.95z" fill="#3a414a"/><path stroke="#3a414a" stroke-width=".05" fill="#3a414a"/><path d="M-481.7 1669.17l-14.86 14.85-14.85-14.85 14.84-14.85z" fill="#fff"/><path d="M-481.04 1669.17l-15.52 15.52-15.52-15.53 15.52-15.52zm-29.7 0l14.18 14.17 14.18-14.17-14.18-14.18z" stroke="#3a414a" stroke-width=".05" fill="#3a414a"/><g><use xlink:href="#Z" transform="matrix(1,0,0,1,-531.9665628467307,1658.4122109974203) translate(0 17.22222222222222)"/></g><g><use xlink:href="#aa" transform="matrix(1,0,0,1,-1100.8952368224275,1633.4811766768403) translate(0 17.22222222222222)"/></g><path d="M-283.6 732h-14.9v-.95h14.9zm103.28 0h-95.6v-.95h95.6zm38.82 0h-9.34v-.95h9.34z" stroke="#3a414a" stroke-width=".05" fill="#3a414a"/><path d="M-141 732h-.5v-.95h.5z" fill="#3a414a"/><path stroke="#3a414a" stroke-width=".05" fill="#3a414a"/><path d="M-298.5 732h-.5v-.95h.5z" fill="#3a414a"/><path stroke="#3a414a" stroke-width=".05" fill="#3a414a"/><g><use xlink:href="#aa" transform="matrix(1,0,0,1,-180.31760667044946,720.7733352439433) translate(0 17.22222222222222)"/></g><g><use xlink:href="#Z" transform="matrix(1,0,0,1,-283.5926277226426,720.7733352439433) translate(0 17.22222222222222)"/></g><path d="M-760 898.5v-32a6 6 0 0 1 6-6h268a6 6 0 0 0 6-6v-16.12" stroke="#3a414a" fill="none"/><path d="M-759.52 899h-.96v-.5h.96z" stroke="#3a414a" stroke-width=".05" fill="#3a414a"/><path d="M-480 823.62l4.63 14.26h-9.26z" stroke="#3a414a" fill="#3a414a"/><path d="M-763.4 1829.4h-15.1v-.96h15.1zm237.6 0H-733.9v-.96h208.13zm44.3 0h-14.8v-.96h14.8z" stroke="#3a414a" stroke-width=".05" fill="#3a414a"/><path d="M-778.5 1829.4h-.5v-.96h.5z" fill="#3a414a"/><path stroke="#3a414a" stroke-width=".05" fill="#3a414a"/><path d="M-481 1829.4h-.5v-.96h.5z" fill="#3a414a"/><path stroke="#3a414a" stroke-width=".05" fill="#3a414a"/><g><use xlink:href="#aa" transform="matrix(1,0,0,1,-525.7890815759408,1818.1639256677256) translate(0 17.22222222222222)"/></g><g><use xlink:href="#aa" transform="matrix(1,0,0,1,-763.4030739261024,1818.1639256677256) translate(0 17.22222222222222)"/></g><path d="M-854.25 898.5h-.95v-11.28h.95zm-5.46-165.62l.98.24.94.4.86.52.78.66.66.77.53.87.4.94.22 1 .08.98V865.7h-.95V739.3l-.07-.9-.2-.83-.33-.8-.45-.74-.57-.66-.66-.56-.74-.44-.8-.34-.84-.2-.88-.07h-50.24v-.95h50.28zm-78.8.87v-.95h19.86v.95z" stroke="#3a414a" stroke-width=".05" fill="#3a414a"/><path d="M-854.25 899h-.95v-.5h.95z" fill="#3a414a"/><path stroke="#3a414a" stroke-width=".05" fill="#3a414a"/><path d="M-938.5 733.75h-.5v-.95h.5z" fill="#3a414a"/><path stroke="#3a414a" stroke-width=".05" fill="#3a414a"/><g><use xlink:href="#Z" transform="matrix(1,0,0,1,-918.6404917064252,722.5227792702813) translate(0 17.22222222222222)"/></g><g><use xlink:href="#ai" transform="matrix(1,0,0,1,-871.3636581264736,865.7111116312002) translate(0 17.22222222222222)"/></g><path d="M100 1729a6 6 0 0 1 6-6h348a6 6 0 0 1 6 6v154a6 6 0 0 1-6 6H106a6 6 0 0 1-6-6z" stroke="#3a414a" stroke-width="2" fill="#fff"/><path d="M100 1792.77h360" stroke="#3a414a" stroke-width="2" fill="none"/><g><use xlink:href="#aj" transform="matrix(1,0,0,1,108,1730.990709078395) translate(76.59526909722221 21.639756944444443)"/><use xlink:href="#ak" transform="matrix(1,0,0,1,108,1730.990709078395) translate(105.50151909722223 48.52777777777778)"/></g><g><use xlink:href="#al" transform="matrix(1,0,0,1,112,1800.7667507450617) translate(0 21.69574652777777)"/><use xlink:href="#am" transform="matrix(1,0,0,1,112,1800.7667507450617) translate(0 48.58376736111111)"/><use xlink:href="#an" transform="matrix(1,0,0,1,112,1800.7667507450617) translate(0 75.47178819444444)"/></g><path d="M98.5 1806h-177" stroke="#3a414a" fill="none"/><path d="M99 1806.47h-.5v-.95h.5zM-78.5 1806.47h-.5v-.95h.5zM236.24 700.48H221.5v-.96h14.74zm124.7 0H243.9v-.96h117.04zm37.56 0h-4.27v-.96h4.27z" stroke="#3a414a" stroke-width=".05" fill="#3a414a"/><path d="M399 700.48h-.5v-.96h.5z" fill="#3a414a"/><path stroke="#3a414a" stroke-width=".05" fill="#3a414a"/><path d="M221.5 700.48h-.5v-.96h.5z" fill="#3a414a"/><path stroke="#3a414a" stroke-width=".05" fill="#3a414a"/><g><use xlink:href="#Z" transform="matrix(1,0,0,1,236.24304645177477,689.2447916666666) translate(0 17.22222222222222)"/></g><g><use xlink:href="#ai" transform="matrix(1,0,0,1,360.9445596335081,689.2447916666666) translate(0 17.22222222222222)"/></g><path d="M-800 166a6 6 0 0 1 6-6h348a6 6 0 0 1 6 6v154a6 6 0 0 1-6 6h-348a6 6 0 0 1-6-6z" stroke="#3a414a" stroke-width="2" fill="#fff"/><path d="M-800 229.78h360" stroke="#3a414a" stroke-width="2" fill="none"/><g><use xlink:href="#aj" transform="matrix(1,0,0,1,-792,168) translate(76.59526909722221 21.639756944444443)"/><use xlink:href="#ao" transform="matrix(1,0,0,1,-792,168) translate(124.04535590277777 48.52777777777778)"/></g><g><use xlink:href="#ap" transform="matrix(1,0,0,1,-788,237.77604166666669) translate(0 21.69574652777777)"/><use xlink:href="#aq" transform="matrix(1,0,0,1,-788,237.77604166666669) translate(0 48.58376736111111)"/><use xlink:href="#ar" transform="matrix(1,0,0,1,-788,237.77604166666669) translate(0 75.47178819444444)"/></g><path d="M-140 626a6 6 0 0 1 6-6h348a6 6 0 0 1 6 6v148a6 6 0 0 1-6 6h-348a6 6 0 0 1-6-6z" stroke="#3a414a" stroke-width="2" fill="#fff"/><path d="M-140 656.97h360m-360 58.48h360" stroke="#3a414a" stroke-width="2" fill="none"/><g><use xlink:href="#as" transform="matrix(1,0,0,1,-132,628) translate(137.42643229166666 16.805338541666668)"/></g><path d="M-801.5 243h-137" stroke="#3a414a" fill="none"/><path d="M-801 243.47h-.5v-.94h.5zM-938.5 243.47h-.5v-.94h.5z" stroke="#3a414a" stroke-width=".05" fill="#3a414a"/><path d="M-1740 166a6 6 0 0 1 6-6h348a6 6 0 0 1 6 6v128a6 6 0 0 1-6 6h-348a6 6 0 0 1-6-6z" stroke="#3a414a" stroke-width="2" fill="#fff"/><path d="M-1740 229.78h360" stroke="#3a414a" stroke-width="2" fill="none"/><g><use xlink:href="#aj" transform="matrix(1,0,0,1,-1732,168) translate(76.59526909722221 21.639756944444443)"/><use xlink:href="#at" transform="matrix(1,0,0,1,-1732,168) translate(133.20334201388889 48.52777777777778)"/></g><g><use xlink:href="#au" transform="matrix(1,0,0,1,-1728,237.77604166666669) translate(0 21.639756944444443)"/><use xlink:href="#av" transform="matrix(1,0,0,1,-1728,237.77604166666669) translate(0 48.52777777777778)"/></g><path d="M-1378.5 230h78" stroke="#3a414a" fill="none"/><path d="M-1378.5 230.47h-.5v-.94h.5z" stroke="#3a414a" stroke-width=".05" fill="#3a414a"/><path d="M-1300.5 230h.5" stroke="#3a414a" fill="none"/><defs><path d="M750 21c-371 0-615-218-615-544v-967h305v942c0 174 123 299 310 299s309-125 309-299v-942h306v967c0 326-247 544-615 544" id="aw"/><path d="M572 22C302 22 117-98 78-306l279-48c29 105 101 156 224 156 114 0 185-48 185-115 0-118-228-130-337-155-215-49-322-150-322-317 0-215 187-347 470-347 265 0 424 116 466 298l-266 47c-24-76-87-130-196-130-98 0-174 46-174 113 0 56 38 95 144 117l201 40c216 44 320 143 320 302 0 220-207 367-500 367" id="ax"/><path d="M633 22C291 22 81-200 81-553c0-345 210-579 537-579 292 0 525 185 525 567v84H378c7 183 109 277 260 277 105 0 184-46 216-132l272 51C1071-99 893 22 633 22zM380-669h474c-15-146-94-237-233-237-143 0-229 99-241 237" id="ay"/><path d="M128 0v-1118h290v195h12c54-169 184-238 367-200v268c-27-8-86-15-130-15-138 0-239 95-239 234V0H128" id="az"/><g id="a"><use transform="matrix(0.008463541666666668,0,0,0.008463541666666668,0,0)" xlink:href="#aw"/><use transform="matrix(0.008463541666666668,0,0,0.008463541666666668,12.686848958333336,0)" xlink:href="#ax"/><use transform="matrix(0.008463541666666668,0,0,0.008463541666666668,22.394531250000004,0)" xlink:href="#ay"/><use transform="matrix(0.008463541666666668,0,0,0.008463541666666668,32.720052083333336,0)" xlink:href="#az"/></g><path d="M711 0l68-411H407L340 0H189l67-411H34l25-150h222l60-366H122l25-152h219l67-411h151l-67 411h372l68-411h151l-67 411h220l-23 152h-222l-60 366h219l-25 150H931L864 0H711zM432-561h372l60-366H492" id="aA"/><use transform="matrix(0.008463541666666668,0,0,0.008463541666666668,0,0)" xlink:href="#aA" id="b"/><path d="M158 0v-1118h180V0H158zm91-1301c-68 0-125-53-125-119s57-119 125-119c69 0 126 53 126 119s-57 119-126 119" id="aB"/><path d="M577 24c-279 0-473-224-473-580 0-354 195-576 474-576 218 0 287 134 324 193h14v-551h180V0H922v-173h-20C865-111 790 24 577 24zm27-161c203 0 314-172 314-421 0-247-108-413-314-413-212 0-317 181-317 413 0 235 108 421 317 421" id="aC"/><g id="c"><use transform="matrix(0.008463541666666668,0,0,0.008463541666666668,0,0)" xlink:href="#aB"/><use transform="matrix(0.008463541666666668,0,0,0.008463541666666668,4.197916666666667,0)" xlink:href="#aC"/></g><path d="M538 24C308 24 148-78 108-271l171-41c32 123 123 178 257 178 156 0 256-77 256-169 0-77-54-128-164-154l-186-44c-203-48-300-148-300-305 0-192 176-326 414-326 230 0 351 112 402 269l-163 42c-31-80-94-158-238-158-133 0-233 69-233 162 0 83 57 129 188 160l169 40c203 48 298 149 298 302 0 196-179 339-441 339" id="aD"/><path d="M598-1118v154H368v674c0 100 37 144 132 144 23 0 62-6 92-12L629-6c-37 13-88 20-134 20-193 0-307-107-307-290v-688H20v-154h168v-266h180v266h230" id="aE"/><path d="M158 0v-1118h174v172h12c41-113 157-188 290-188 26 0 70 2 91 3v181c-11-2-60-10-108-10-161 0-279 109-279 260V0H158" id="aF"/><path d="M338-670V0H158v-1118h173l1 207c72-158 192-221 342-221 226 0 378 139 378 422V0H872v-695c0-172-96-275-252-275-161 0-282 109-282 300" id="aG"/><path d="M611 442c-248 0-391-105-460-228l146-94c47 65 117 165 314 165 178 0 307-82 307-266v-224h-17C863-141 792-18 576-18c-268 0-472-195-472-546 0-346 197-568 476-568 216 0 288 133 326 193h17v-179h175V29c0 289-215 413-487 413zm-5-620c203 0 314-146 314-390 0-237-108-403-314-403-213 0-319 180-319 403 0 230 109 390 319 390" id="aH"/><g id="d"><use transform="matrix(0.008463541666666668,0,0,0.008463541666666668,0,0)" xlink:href="#aD"/><use transform="matrix(0.008463541666666668,0,0,0.008463541666666668,9.149088541666668,0)" xlink:href="#aE"/><use transform="matrix(0.008463541666666668,0,0,0.008463541666666668,14.819661458333336,0)" xlink:href="#aF"/><use transform="matrix(0.008463541666666668,0,0,0.008463541666666668,21.615885416666668,0)" xlink:href="#aB"/><use transform="matrix(0.008463541666666668,0,0,0.008463541666666668,25.81380208333334,0)" xlink:href="#aG"/><use transform="matrix(0.008463541666666668,0,0,0.008463541666666668,36.05468750000001,0)" xlink:href="#aH"/></g><path d="M678-1118v154H420V0H240v-964H20v-154h220v-149c0-194 155-293 318-293 85 0 141 18 168 30l-50 154c-19-6-47-17-97-17-111 0-159 58-159 166v109h258" id="aI"/><path d="M934 0v166H0V0h934" id="aJ"/><path d="M471 26C259 26 90-98 90-318c0-256 228-303 435-329 202-27 287-16 287-108 0-139-79-219-234-219-161 0-248 86-283 164l-173-57c86-203 278-265 451-265 150 0 419 46 419 395V0H815v-152h-12C765-73 660 26 471 26zm31-159c199 0 310-134 310-271v-155c-30 35-226 55-295 64-131 17-246 59-246 186 0 116 97 176 231 176" id="aK"/><path d="M158 0v-1118h175l1 205c55-151 181-225 313-225 147 0 245 90 285 228 53-141 190-228 352-228 194 0 352 125 352 384V0h-181v-749c0-161-105-225-225-225-151 0-243 103-243 244V0H807v-767c0-124-93-207-219-207-131 0-250 92-250 270V0H158" id="aL"/><path d="M628 24c-324 0-524-230-524-574 0-343 198-582 503-582 237 0 487 146 487 559v75H286c9 234 145 362 343 362 132 0 231-58 273-172l174 48C1024-91 857 24 628 24zM287-650h624c-17-190-120-322-304-322-192 0-309 151-320 322" id="aM"/><g id="e"><use transform="matrix(0.008463541666666668,0,0,0.008463541666666668,0,0)" xlink:href="#aI"/><use transform="matrix(0.008463541666666668,0,0,0.008463541666666668,6.415364583333334,0)" xlink:href="#aB"/><use transform="matrix(0.008463541666666668,0,0,0.008463541666666668,10.61328125,0)" xlink:href="#aF"/><use transform="matrix(0.008463541666666668,0,0,0.008463541666666668,17.138671875,0)" xlink:href="#aD"/><use transform="matrix(0.008463541666666668,0,0,0.008463541666666668,26.287760416666668,0)" xlink:href="#aE"/><use transform="matrix(0.008463541666666668,0,0,0.008463541666666668,31.958333333333332,0)" xlink:href="#aJ"/><use transform="matrix(0.008463541666666668,0,0,0.008463541666666668,40.447265625,0)" xlink:href="#aG"/><use transform="matrix(0.008463541666666668,0,0,0.008463541666666668,50.68815104166667,0)" xlink:href="#aK"/><use transform="matrix(0.008463541666666668,0,0,0.008463541666666668,60.42122395833334,0)" xlink:href="#aL"/><use transform="matrix(0.008463541666666668,0,0,0.008463541666666668,75.60481770833334,0)" xlink:href="#aM"/></g><path d="M338-1490V0H158v-1490h180" id="aN"/><g id="f"><use transform="matrix(0.008463541666666668,0,0,0.008463541666666668,0,0)" xlink:href="#aN"/><use transform="matrix(0.008463541666666668,0,0,0.008463541666666668,4.197916666666667,0)" xlink:href="#aK"/><use transform="matrix(0.008463541666666668,0,0,0.008463541666666668,13.930989583333336,0)" xlink:href="#aD"/><use transform="matrix(0.008463541666666668,0,0,0.008463541666666668,23.080078125000004,0)" xlink:href="#aE"/><use transform="matrix(0.008463541666666668,0,0,0.008463541666666668,28.75065104166667,0)" xlink:href="#aJ"/><use transform="matrix(0.008463541666666668,0,0,0.008463541666666668,37.23958333333334,0)" xlink:href="#aG"/><use transform="matrix(0.008463541666666668,0,0,0.008463541666666668,47.480468750000014,0)" xlink:href="#aK"/><use transform="matrix(0.008463541666666668,0,0,0.008463541666666668,57.213541666666686,0)" xlink:href="#aL"/><use transform="matrix(0.008463541666666668,0,0,0.008463541666666668,72.39713541666669,0)" xlink:href="#aM"/></g><g id="g"><use transform="matrix(0.008463541666666668,0,0,0.008463541666666668,0,0)" xlink:href="#aD"/><use transform="matrix(0.008463541666666668,0,0,0.008463541666666668,9.149088541666668,0)" xlink:href="#aE"/><use transform="matrix(0.008463541666666668,0,0,0.008463541666666668,14.819661458333336,0)" xlink:href="#aF"/><use transform="matrix(0.008463541666666668,0,0,0.008463541666666668,21.615885416666668,0)" xlink:href="#aB"/><use transform="matrix(0.008463541666666668,0,0,0.008463541666666668,25.81380208333334,0)" xlink:href="#aG"/><use transform="matrix(0.008463541666666668,0,0,0.008463541666666668,36.05468750000001,0)" xlink:href="#aH"/></g><use transform="matrix(0.008463541666666668,0,0,0.008463541666666668,0,0)" xlink:href="#aA" id="h"/><g id="i"><use transform="matrix(0.008463541666666668,0,0,0.008463541666666668,0,0)" xlink:href="#aM"/><use transform="matrix(0.008463541666666668,0,0,0.008463541666666668,10.105468750000002,0)" xlink:href="#aL"/><use transform="matrix(0.008463541666666668,0,0,0.008463541666666668,25.289062500000004,0)" xlink:href="#aK"/><use transform="matrix(0.008463541666666668,0,0,0.008463541666666668,35.02213541666667,0)" xlink:href="#aB"/><use transform="matrix(0.008463541666666668,0,0,0.008463541666666668,39.220052083333336,0)" xlink:href="#aN"/></g><g id="j"><use transform="matrix(0.008463541666666668,0,0,0.008463541666666668,0,0)" xlink:href="#aD"/><use transform="matrix(0.008463541666666668,0,0,0.008463541666666668,9.149088541666668,0)" xlink:href="#aE"/><use transform="matrix(0.008463541666666668,0,0,0.008463541666666668,14.819661458333336,0)" xlink:href="#aF"/><use transform="matrix(0.008463541666666668,0,0,0.008463541666666668,21.615885416666668,0)" xlink:href="#aB"/><use transform="matrix(0.008463541666666668,0,0,0.008463541666666668,25.81380208333334,0)" xlink:href="#aG"/><use transform="matrix(0.008463541666666668,0,0,0.008463541666666668,36.05468750000001,0)" xlink:href="#aH"/></g><path d="M158 418v-1536h174v179h20c37-59 106-193 324-193 279 0 474 222 474 576 0 356-194 580-473 580-213 0-288-135-325-197h-14v591H158zm492-555c209 0 317-186 317-421 0-232-105-413-317-413-206 0-314 166-314 413 0 249 111 421 314 421" id="aO"/><path d="M409 0L70-1118h191c89 329 165 560 243 925 75-353 154-601 240-925h192c85 325 161 564 235 922 77-354 157-598 244-922h191L1267 0h-179c-86-307-176-590-250-913C763-588 675-308 588 0H409" id="aP"/><path d="M613 24c-304 0-509-231-509-576 0-350 205-580 509-580 305 0 511 230 511 580 0 345-206 576-511 576zm0-161c226 0 329-195 329-415 0-222-103-419-329-419-223 0-326 196-326 419 0 220 103 415 326 415" id="aQ"/><g id="k"><use transform="matrix(0.008463541666666668,0,0,0.008463541666666668,0,0)" xlink:href="#aO"/><use transform="matrix(0.008463541666666668,0,0,0.008463541666666668,10.782552083333334,0)" xlink:href="#aK"/><use transform="matrix(0.008463541666666668,0,0,0.008463541666666668,20.515625000000004,0)" xlink:href="#aD"/><use transform="matrix(0.008463541666666668,0,0,0.008463541666666668,29.66471354166667,0)" xlink:href="#aD"/><use transform="matrix(0.008463541666666668,0,0,0.008463541666666668,38.81380208333334,0)" xlink:href="#aP"/><use transform="matrix(0.008463541666666668,0,0,0.008463541666666668,52.685546875000014,0)" xlink:href="#aQ"/><use transform="matrix(0.008463541666666668,0,0,0.008463541666666668,63.078776041666686,0)" xlink:href="#aF"/><use transform="matrix(0.008463541666666668,0,0,0.008463541666666668,69.31640625000003,0)" xlink:href="#aC"/></g><g id="l"><use transform="matrix(0.008463541666666668,0,0,0.008463541666666668,0,0)" xlink:href="#aH"/><use transform="matrix(0.008463541666666668,0,0,0.008463541666666668,10.630208333333334,0)" xlink:href="#aM"/><use transform="matrix(0.008463541666666668,0,0,0.008463541666666668,20.735677083333336,0)" xlink:href="#aG"/><use transform="matrix(0.008463541666666668,0,0,0.008463541666666668,30.976562500000004,0)" xlink:href="#aC"/><use transform="matrix(0.008463541666666668,0,0,0.008463541666666668,41.58984375000001,0)" xlink:href="#aM"/><use transform="matrix(0.008463541666666668,0,0,0.008463541666666668,51.69531250000001,0)" xlink:href="#aF"/></g><path d="M789 20c-398 0-667-293-667-764 0-473 273-766 655-766 315 0 558 198 612 487h-196c-61-191-204-311-415-311-262 0-471 207-471 590 0 380 208 588 482 588 249 0 420-165 425-427H828v-166h572v163c0 370-256 606-611 606" id="aR"/><g id="m"><use transform="matrix(0.008463541666666668,0,0,0.008463541666666668,0,0)" xlink:href="#aR"/><use transform="matrix(0.008463541666666668,0,0,0.008463541666666668,12.932291666666668,0)" xlink:href="#aM"/><use transform="matrix(0.008463541666666668,0,0,0.008463541666666668,23.03776041666667,0)" xlink:href="#aG"/><use transform="matrix(0.008463541666666668,0,0,0.008463541666666668,33.27864583333334,0)" xlink:href="#aC"/><use transform="matrix(0.008463541666666668,0,0,0.008463541666666668,43.89192708333334,0)" xlink:href="#aM"/><use transform="matrix(0.008463541666666668,0,0,0.008463541666666668,53.99739583333334,0)" xlink:href="#aF"/></g><g id="n"><use transform="matrix(0.008463541666666668,0,0,0.008463541666666668,0,0)" xlink:href="#aF"/><use transform="matrix(0.008463541666666668,0,0,0.008463541666666668,6.237630208333334,0)" xlink:href="#aQ"/><use transform="matrix(0.008463541666666668,0,0,0.008463541666666668,16.630859375,0)" xlink:href="#aN"/><use transform="matrix(0.008463541666666668,0,0,0.008463541666666668,20.828776041666668,0)" xlink:href="#aM"/></g><path d="M87 0l247-1490h510c351 0 476 196 432 460-33 197-146 351-346 417L1163 0H943L728-579c-116 2-237 0-355 1L277 0H87zm314-747h311c238 0 346-110 375-283 31-185-52-293-281-293H496" id="aS"/><path d="M528 24C258 24 94-156 94-433c0-355 229-699 603-699 270 0 436 178 436 458 0 359-234 698-605 698zm4-161c275 0 420-287 420-533 0-170-77-301-260-301-271 0-418 288-418 536 0 168 77 298 258 298" id="aT"/><path d="M492-1490L245 0H65l247-1490h180" id="aU"/><path d="M535 24C259 24 94-144 94-427c0-392 272-715 610-715 216 0 356 119 356 305 0 244-237 344-790 350-18 199 49 349 276 352 142 0 260-66 317-173l167 47C947-85 756 24 535 24zM294-623c447-4 586-57 586-218 0-85-78-141-194-141-220 0-342 177-392 359" id="aV"/><path d="M226-1323l28-167h1126l-28 167H885L666 0H476l219-1323H226" id="aW"/><path d="M-19 405l72-156c121 32 203 15 288-150l47-93-241-1124h188c55 313 135 616 167 950 142-329 324-636 483-950h205L486 167c-97 177-219 259-378 259-59 0-109-11-127-21" id="aX"/><path d="M-4 418l255-1536h174l-30 179h9c47-68 143-193 355-193 246 0 401 170 401 447 0 348-211 709-568 709-219 0-274-140-300-202h-17l-99 596H-4zm572-555c267 0 411-296 411-543 0-170-78-291-250-291-269 0-405 284-405 542 0 177 81 292 244 292" id="aY"/><g id="o"><use transform="matrix(0.008463541666666668,0,0,0.008463541666666668,0,0)" xlink:href="#aS"/><use transform="matrix(0.008463541666666668,0,0,0.008463541666666668,10.901041666666668,0)" xlink:href="#aT"/><use transform="matrix(0.008463541666666668,0,0,0.008463541666666668,21.302734375,0)" xlink:href="#aU"/><use transform="matrix(0.008463541666666668,0,0,0.008463541666666668,25.500651041666668,0)" xlink:href="#aV"/><use transform="matrix(0.008463541666666668,0,0,0.008463541666666668,34.125,0)" xlink:href="#aW"/><use transform="matrix(0.008463541666666668,0,0,0.008463541666666668,44.24739583333333,0)" xlink:href="#aX"/><use transform="matrix(0.008463541666666668,0,0,0.008463541666666668,53.988932291666664,0)" xlink:href="#aY"/><use transform="matrix(0.008463541666666668,0,0,0.008463541666666668,64.61067708333333,0)" xlink:href="#aV"/></g><path d="M613 24c-304 0-509-231-509-576 0-350 205-580 509-580 216 0 392 114 453 309l-173 49c-33-115-133-197-280-197-223 0-326 196-326 419 0 220 103 415 326 415 150 0 252-85 285-206l172 49C1010-95 832 24 613 24" id="aZ"/><g id="p"><use transform="matrix(0.008463541666666668,0,0,0.008463541666666668,0,0)" xlink:href="#aZ"/><use transform="matrix(0.008463541666666668,0,0,0.008463541666666668,9.902343750000002,0)" xlink:href="#aF"/><use transform="matrix(0.008463541666666668,0,0,0.008463541666666668,16.139973958333336,0)" xlink:href="#aM"/><use transform="matrix(0.008463541666666668,0,0,0.008463541666666668,26.41471354166667,0)" xlink:href="#aK"/><use transform="matrix(0.008463541666666668,0,0,0.008463541666666668,36.14778645833334,0)" xlink:href="#aE"/><use transform="matrix(0.008463541666666668,0,0,0.008463541666666668,41.64908854166667,0)" xlink:href="#aM"/><use transform="matrix(0.008463541666666668,0,0,0.008463541666666668,51.75455729166667,0)" xlink:href="#aC"/><use transform="matrix(0.008463541666666668,0,0,0.008463541666666668,62.36783854166668,0)" xlink:href="#aJ"/><use transform="matrix(0.008463541666666668,0,0,0.008463541666666668,70.27278645833334,0)" xlink:href="#aK"/><use transform="matrix(0.008463541666666668,0,0,0.008463541666666668,80.00585937500001,0)" xlink:href="#aE"/></g><g id="q"><use transform="matrix(0.008463541666666668,0,0,0.008463541666666668,0,0)" xlink:href="#aE"/><use transform="matrix(0.008463541666666668,0,0,0.008463541666666668,5.670572916666668,0)" xlink:href="#aB"/><use transform="matrix(0.008463541666666668,0,0,0.008463541666666668,9.868489583333337,0)" xlink:href="#aL"/><use transform="matrix(0.008463541666666668,0,0,0.008463541666666668,25.052083333333336,0)" xlink:href="#aM"/><use transform="matrix(0.008463541666666668,0,0,0.008463541666666668,35.157552083333336,0)" xlink:href="#aD"/><use transform="matrix(0.008463541666666668,0,0,0.008463541666666668,44.306640625,0)" xlink:href="#aE"/><use transform="matrix(0.008463541666666668,0,0,0.008463541666666668,50.06184895833332,0)" xlink:href="#aK"/><use transform="matrix(0.008463541666666668,0,0,0.008463541666666668,59.794921875,0)" xlink:href="#aL"/><use transform="matrix(0.008463541666666668,0,0,0.008463541666666668,74.978515625,0)" xlink:href="#aO"/></g><path d="M537 14c-226 0-379-139-379-422v-710h180v695c0 172 97 275 253 275 160 0 281-109 281-300v-670h181V0H879v-209C806-46 684 14 537 14" id="ba"/><g id="r"><use transform="matrix(0.008463541666666668,0,0,0.008463541666666668,0,0)" xlink:href="#ba"/><use transform="matrix(0.008463541666666668,0,0,0.008463541666666668,10.249348958333334,0)" xlink:href="#aO"/><use transform="matrix(0.008463541666666668,0,0,0.008463541666666668,20.862630208333336,0)" xlink:href="#aC"/><use transform="matrix(0.008463541666666668,0,0,0.008463541666666668,31.475911458333332,0)" xlink:href="#aK"/><use transform="matrix(0.008463541666666668,0,0,0.008463541666666668,41.208984375,0)" xlink:href="#aE"/><use transform="matrix(0.008463541666666668,0,0,0.008463541666666668,46.71028645833333,0)" xlink:href="#aM"/><use transform="matrix(0.008463541666666668,0,0,0.008463541666666668,56.81575520833333,0)" xlink:href="#aC"/><use transform="matrix(0.008463541666666668,0,0,0.008463541666666668,67.42903645833333,0)" xlink:href="#aJ"/><use transform="matrix(0.008463541666666668,0,0,0.008463541666666668,75.333984375,0)" xlink:href="#aK"/><use transform="matrix(0.008463541666666668,0,0,0.008463541666666668,85.06705729166667,0)" xlink:href="#aE"/></g><g id="s"><use transform="matrix(0.008463541666666668,0,0,0.008463541666666668,0,0)" xlink:href="#aE"/><use transform="matrix(0.008463541666666668,0,0,0.008463541666666668,5.670572916666668,0)" xlink:href="#aB"/><use transform="matrix(0.008463541666666668,0,0,0.008463541666666668,9.868489583333337,0)" xlink:href="#aL"/><use transform="matrix(0.008463541666666668,0,0,0.008463541666666668,25.052083333333336,0)" xlink:href="#aM"/><use transform="matrix(0.008463541666666668,0,0,0.008463541666666668,35.157552083333336,0)" xlink:href="#aD"/><use transform="matrix(0.008463541666666668,0,0,0.008463541666666668,44.306640625,0)" xlink:href="#aE"/><use transform="matrix(0.008463541666666668,0,0,0.008463541666666668,50.06184895833332,0)" xlink:href="#aK"/><use transform="matrix(0.008463541666666668,0,0,0.008463541666666668,59.794921875,0)" xlink:href="#aL"/><use transform="matrix(0.008463541666666668,0,0,0.008463541666666668,74.978515625,0)" xlink:href="#aO"/></g><path d="M681 22C323 22 94-145 85-462h297c10 151 131 226 296 226 163 0 271-77 271-190 0-102-95-149-257-189l-164-41c-252-61-403-188-403-405 0-269 236-449 560-449 330 0 546 183 551 445H941c-11-119-106-188-259-188-156 0-244 72-244 172-3 156 226 185 373 221 250 61 445 186 445 436 0 271-213 446-575 446" id="bb"/><path d="M683-1118v229H474v562c0 71 29 104 102 104 23 0 73-7 95-13l43 225C647 9 580 16 520 16 296 16 174-96 174-301v-588H20v-229h154v-266h300v266h209" id="bc"/><path d="M513 14c-232 0-385-159-385-421v-711h300v659c0 139 76 222 202 222 127 0 217-86 217-234v-647h301V0H864l-4-232C797-74 683 14 513 14" id="bd"/><path d="M537 19C279 19 81-185 81-557c0-382 206-575 454-575 190 0 278 113 318 202h10v-560h300V0H868v-179h-15C812-89 719 19 537 19zm92-241c153 0 240-134 240-336 0-203-86-334-240-334-158 0-240 138-240 334 0 197 84 336 240 336" id="be"/><path d="M428-647V0H128v-1118h283l4 231c63-156 176-245 348-245 232 0 384 159 384 421V0H847v-659c0-139-76-222-202-222-128 0-217 86-217 234" id="bf"/><g id="t"><use transform="matrix(0.008463541666666668,0,0,0.008463541666666668,0,0)" xlink:href="#bb"/><use transform="matrix(0.008463541666666668,0,0,0.008463541666666668,11.349609375000002,0)" xlink:href="#bc"/><use transform="matrix(0.008463541666666668,0,0,0.008463541666666668,17.697265625000004,0)" xlink:href="#bd"/><use transform="matrix(0.008463541666666668,0,0,0.008463541666666668,28.488281250000007,0)" xlink:href="#be"/><use transform="matrix(0.008463541666666668,0,0,0.008463541666666668,39.41471354166667,0)" xlink:href="#ay"/><use transform="matrix(0.008463541666666668,0,0,0.008463541666666668,49.74023437500001,0)" xlink:href="#bf"/><use transform="matrix(0.008463541666666668,0,0,0.008463541666666668,60.53125000000001,0)" xlink:href="#bc"/></g><path d="M798-719v166H144v-166h654" id="bg"/><use transform="matrix(0.008463541666666668,0,0,0.008463541666666668,0,0)" xlink:href="#bg" id="u"/><g id="v"><use transform="matrix(0.008463541666666668,0,0,0.008463541666666668,0,0)" xlink:href="#aL"/><use transform="matrix(0.008463541666666668,0,0,0.008463541666666668,15.183593750000002,0)" xlink:href="#aK"/><use transform="matrix(0.008463541666666668,0,0,0.008463541666666668,24.91666666666667,0)" xlink:href="#aD"/><use transform="matrix(0.008463541666666668,0,0,0.008463541666666668,34.06575520833334,0)" xlink:href="#aK"/><use transform="matrix(0.008463541666666668,0,0,0.008463541666666668,43.798828125000014,0)" xlink:href="#aF"/></g><g id="w"><use transform="matrix(0.008463541666666668,0,0,0.008463541666666668,0,0)" xlink:href="#aD"/><use transform="matrix(0.008463541666666668,0,0,0.008463541666666668,9.149088541666668,0)" xlink:href="#aE"/><use transform="matrix(0.008463541666666668,0,0,0.008463541666666668,14.819661458333336,0)" xlink:href="#aF"/><use transform="matrix(0.008463541666666668,0,0,0.008463541666666668,21.615885416666668,0)" xlink:href="#aB"/><use transform="matrix(0.008463541666666668,0,0,0.008463541666666668,25.81380208333334,0)" xlink:href="#aG"/><use transform="matrix(0.008463541666666668,0,0,0.008463541666666668,36.05468750000001,0)" xlink:href="#aH"/></g><path d="M659 0H135v-1490h529c448 0 721 280 721 744 0 466-273 746-726 746zM440-263h204c287 0 437-148 437-483 0-333-150-481-435-481H440v964" id="bh"/><path d="M128 0v-1118h300V0H128zm150-1264c-91 0-165-68-165-154 0-85 74-154 165-154 90 0 165 69 165 154 0 86-75 154-165 154" id="bi"/><path d="M628 22C291 22 81-210 81-554c0-346 210-578 547-578 265 0 455 142 497 372l-279 52c-25-116-99-188-215-188-160 0-244 139-244 341 0 200 84 341 244 341 116 0 193-74 217-195l279 51C1085-123 896 22 628 22" id="bj"/><path d="M628 22C291 22 81-210 81-554c0-346 210-578 547-578 336 0 547 232 547 578 0 344-211 576-547 576zm0-236c160 0 242-146 242-341 0-197-82-341-242-341S387-753 387-555c0 195 81 341 241 341" id="bk"/><g id="x"><use transform="matrix(0.008463541666666668,0,0,0.008463541666666668,0,0)" xlink:href="#bh"/><use transform="matrix(0.008463541666666668,0,0,0.008463541666666668,12.517578125000002,0)" xlink:href="#bi"/><use transform="matrix(0.008463541666666668,0,0,0.008463541666666668,17.214843750000004,0)" xlink:href="#az"/><use transform="matrix(0.008463541666666668,0,0,0.008463541666666668,23.85026041666667,0)" xlink:href="#ay"/><use transform="matrix(0.008463541666666668,0,0,0.008463541666666668,34.17578125000001,0)" xlink:href="#bj"/><use transform="matrix(0.008463541666666668,0,0,0.008463541666666668,44.37434895833334,0)" xlink:href="#bc"/><use transform="matrix(0.008463541666666668,0,0,0.008463541666666668,50.72200520833334,0)" xlink:href="#bi"/><use transform="matrix(0.008463541666666668,0,0,0.008463541666666668,55.41927083333334,0)" xlink:href="#bk"/><use transform="matrix(0.008463541666666668,0,0,0.008463541666666668,66.04947916666667,0)" xlink:href="#bf"/></g><path d="M593-100v-404H195v-159h398v-403h169v403h398v159H762v404H593" id="bl"/><use transform="matrix(0.010850694444444444,0,0,0.010850694444444444,0,0)" xlink:href="#bl" id="y"/><path d="M218-607c0-325 108-727 258-974h175c-155 315-250 682-250 974 0 265 78 531 250 886H476C306-10 218-315 218-607" id="bm"/><path d="M52 0l541-1490h220L1361 0h-200l-149-416H398L254 0H52zm404-582h497c-103-290-145-390-251-756-108 377-145 460-246 756" id="bn"/><path d="M140 405l46-156c120 36 205 19 263-150l32-93L54-1118h197c107 313 237 620 324 950 87-331 219-637 326-950h196L606 167c-68 178-176 259-334 259-64 0-113-12-132-21" id="bo"/><g id="z"><use transform="matrix(0.010850694444444444,0,0,0.010850694444444444,0,0)" xlink:href="#aZ"/><use transform="matrix(0.010850694444444444,0,0,0.010850694444444444,12.6953125,0)" xlink:href="#aF"/><use transform="matrix(0.010850694444444444,0,0,0.010850694444444444,20.692274305555557,0)" xlink:href="#aM"/><use transform="matrix(0.010850694444444444,0,0,0.010850694444444444,33.865017361111114,0)" xlink:href="#aK"/><use transform="matrix(0.010850694444444444,0,0,0.010850694444444444,46.34331597222223,0)" xlink:href="#aE"/><use transform="matrix(0.010850694444444444,0,0,0.010850694444444444,53.39626736111112,0)" xlink:href="#aM"/><use transform="matrix(0.010850694444444444,0,0,0.010850694444444444,66.35199652777779,0)" xlink:href="#aJ"/><use transform="matrix(0.010850694444444444,0,0,0.010850694444444444,76.4865451388889,0)" xlink:href="#ba"/><use transform="matrix(0.010850694444444444,0,0,0.010850694444444444,89.62673611111111,0)" xlink:href="#aD"/><use transform="matrix(0.010850694444444444,0,0,0.010850694444444444,101.35633680555556,0)" xlink:href="#aM"/><use transform="matrix(0.010850694444444444,0,0,0.010850694444444444,114.31206597222224,0)" xlink:href="#aF"/><use transform="matrix(0.010850694444444444,0,0,0.010850694444444444,122.6779513888889,0)" xlink:href="#bm"/><use transform="matrix(0.010850694444444444,0,0,0.010850694444444444,130.7834201388889,0)" xlink:href="#bn"/><use transform="matrix(0.010850694444444444,0,0,0.010850694444444444,146.1154513888889,0)" xlink:href="#aF"/><use transform="matrix(0.010850694444444444,0,0,0.010850694444444444,154.8285590277778,0)" xlink:href="#aF"/><use transform="matrix(0.010850694444444444,0,0,0.010850694444444444,163.19444444444446,0)" xlink:href="#aK"/><use transform="matrix(0.010850694444444444,0,0,0.010850694444444444,175.34722222222223,0)" xlink:href="#bo"/></g><path d="M96 279C273-86 346-350 346-607c0-292-95-659-250-974h175c150 246 258 650 258 974 0 297-91 602-258 886H96" id="bp"/><g id="A"><use transform="matrix(0.010850694444444444,0,0,0.010850694444444444,0,0)" xlink:href="#ba"/><use transform="matrix(0.010850694444444444,0,0,0.010850694444444444,13.140190972222221,0)" xlink:href="#aD"/><use transform="matrix(0.010850694444444444,0,0,0.010850694444444444,24.869791666666664,0)" xlink:href="#aM"/><use transform="matrix(0.010850694444444444,0,0,0.010850694444444444,37.82552083333333,0)" xlink:href="#aF"/><use transform="matrix(0.010850694444444444,0,0,0.010850694444444444,46.191406249999986,0)" xlink:href="#aD"/><use transform="matrix(0.010850694444444444,0,0,0.010850694444444444,57.921006944444436,0)" xlink:href="#bp"/></g><path d="M180 0v-1490h510c348 0 508 194 508 460 0 198-88 351-276 417L1256 0h-220L726-579c-117 2-238 0-356 1V0H180zm190-747h312c235 0 327-108 327-283 0-177-92-293-329-293H370v576" id="bq"/><g id="B"><use transform="matrix(0.010850694444444444,0,0,0.010850694444444444,0,0)" xlink:href="#aH"/><use transform="matrix(0.010850694444444444,0,0,0.010850694444444444,13.628472222222221,0)" xlink:href="#aM"/><use transform="matrix(0.010850694444444444,0,0,0.010850694444444444,26.58420138888889,0)" xlink:href="#aG"/><use transform="matrix(0.010850694444444444,0,0,0.010850694444444444,39.713541666666664,0)" xlink:href="#aM"/><use transform="matrix(0.010850694444444444,0,0,0.010850694444444444,52.66927083333333,0)" xlink:href="#aF"/><use transform="matrix(0.010850694444444444,0,0,0.010850694444444444,61.035156249999986,0)" xlink:href="#aK"/><use transform="matrix(0.010850694444444444,0,0,0.010850694444444444,73.5134548611111,0)" xlink:href="#aE"/><use transform="matrix(0.010850694444444444,0,0,0.010850694444444444,80.56640624999999,0)" xlink:href="#aM"/><use transform="matrix(0.010850694444444444,0,0,0.010850694444444444,93.52213541666666,0)" xlink:href="#bq"/><use transform="matrix(0.010850694444444444,0,0,0.010850694444444444,107.49782986111111,0)" xlink:href="#aM"/><use transform="matrix(0.010850694444444444,0,0,0.010850694444444444,120.45355902777777,0)" xlink:href="#aO"/><use transform="matrix(0.010850694444444444,0,0,0.010850694444444444,134.06032986111111,0)" xlink:href="#aQ"/><use transform="matrix(0.010850694444444444,0,0,0.010850694444444444,147.38498263888889,0)" xlink:href="#aF"/><use transform="matrix(0.010850694444444444,0,0,0.010850694444444444,156.09809027777777,0)" xlink:href="#aE"/><use transform="matrix(0.010850694444444444,0,0,0.010850694444444444,163.36805555555554,0)" xlink:href="#bm"/><use transform="matrix(0.010850694444444444,0,0,0.010850694444444444,171.47352430555554,0)" xlink:href="#bp"/></g><path d="M786 20C389 20 94-260 94-744c0-487 299-766 692-766 339 0 597 194 641 529h-309c-28-162-156-258-326-258-233 0-388 179-388 495 0 323 157 493 387 493 170 0 298-97 328-259h309c-34 277-266 530-642 530" id="br"/><path d="M428-1490V0H128v-1490h300" id="bs"/><path d="M440 22C227 22 68-92 68-313c0-250 202-322 422-343 195-21 271-24 271-105 0-95-63-149-175-149-116 0-187 57-211 129l-275-46c57-194 237-305 487-305 240 0 474 108 474 379V0H777v-155h-10C713-51 605 22 440 22zm85-211c140 0 238-93 238-211v-121c-37 26-156 42-222 51-111 16-185 59-185 149 0 87 70 132 169 132" id="bt"/><g id="C"><use transform="matrix(0.008463541666666668,0,0,0.008463541666666668,0,0)" xlink:href="#br"/><use transform="matrix(0.008463541666666668,0,0,0.008463541666666668,12.822265625000002,0)" xlink:href="#bs"/><use transform="matrix(0.008463541666666668,0,0,0.008463541666666668,17.519531250000004,0)" xlink:href="#bt"/><use transform="matrix(0.008463541666666668,0,0,0.008463541666666668,27.58268229166667,0)" xlink:href="#ax"/><use transform="matrix(0.008463541666666668,0,0,0.008463541666666668,37.29036458333334,0)" xlink:href="#ax"/></g><g id="D"><use transform="matrix(0.008463541666666668,0,0,0.008463541666666668,0,0)" xlink:href="#aG"/><use transform="matrix(0.008463541666666668,0,0,0.008463541666666668,10.240885416666668,0)" xlink:href="#aK"/><use transform="matrix(0.008463541666666668,0,0,0.008463541666666668,19.973958333333336,0)" xlink:href="#aL"/><use transform="matrix(0.008463541666666668,0,0,0.008463541666666668,35.157552083333336,0)" xlink:href="#aM"/></g><path d="M180 0v-1490h190v1322h690V0H180" id="bu"/><path d="M481 0L54-1118h197c107 314 236 620 325 951 87-331 217-637 324-951h197L670 0H481" id="bv"/><g id="E"><use transform="matrix(0.008463541666666668,0,0,0.008463541666666668,0,0)" xlink:href="#bu"/><use transform="matrix(0.008463541666666668,0,0,0.008463541666666668,9.800781250000002,0)" xlink:href="#aM"/><use transform="matrix(0.008463541666666668,0,0,0.008463541666666668,19.567708333333336,0)" xlink:href="#bv"/><use transform="matrix(0.008463541666666668,0,0,0.008463541666666668,28.970703125,0)" xlink:href="#aM"/><use transform="matrix(0.008463541666666668,0,0,0.008463541666666668,39.076171875,0)" xlink:href="#aN"/></g><path d="M657 26c-323 0-524-166-541-416h195c15 169 171 246 346 246 202 0 356-106 356-265 5-203-294-238-475-293-239-73-380-191-380-389 0-252 224-419 512-419 294 0 499 171 508 396H992c-17-145-151-228-328-228-193 0-321 102-321 242 0 156 175 211 284 241l149 41c160 44 422 134 422 412 0 244-197 432-541 432" id="bw"/><g id="F"><use transform="matrix(0.010850694444444444,0,0,0.010850694444444444,0,0)" xlink:href="#aK"/><use transform="matrix(0.010850694444444444,0,0,0.010850694444444444,12.47829861111111,0)" xlink:href="#aC"/><use transform="matrix(0.010850694444444444,0,0,0.010850694444444444,26.085069444444443,0)" xlink:href="#aC"/><use transform="matrix(0.010850694444444444,0,0,0.010850694444444444,39.69184027777777,0)" xlink:href="#bw"/><use transform="matrix(0.010850694444444444,0,0,0.010850694444444444,53.94965277777778,0)" xlink:href="#aE"/><use transform="matrix(0.010850694444444444,0,0,0.010850694444444444,61.21961805555555,0)" xlink:href="#ba"/><use transform="matrix(0.010850694444444444,0,0,0.010850694444444444,74.35980902777777,0)" xlink:href="#aC"/><use transform="matrix(0.010850694444444444,0,0,0.010850694444444444,87.9665798611111,0)" xlink:href="#aM"/><use transform="matrix(0.010850694444444444,0,0,0.010850694444444444,100.92230902777777,0)" xlink:href="#aG"/><use transform="matrix(0.010850694444444444,0,0,0.010850694444444444,114.05164930555556,0)" xlink:href="#aE"/><use transform="matrix(0.010850694444444444,0,0,0.010850694444444444,121.32161458333331,0)" xlink:href="#bm"/><use transform="matrix(0.010850694444444444,0,0,0.010850694444444444,129.42708333333331,0)" xlink:href="#bw"/><use transform="matrix(0.010850694444444444,0,0,0.010850694444444444,143.68489583333331,0)" xlink:href="#aE"/><use transform="matrix(0.010850694444444444,0,0,0.010850694444444444,150.9548611111111,0)" xlink:href="#ba"/><use transform="matrix(0.010850694444444444,0,0,0.010850694444444444,164.09505208333331,0)" xlink:href="#aC"/><use transform="matrix(0.010850694444444444,0,0,0.010850694444444444,177.70182291666666,0)" xlink:href="#aM"/><use transform="matrix(0.010850694444444444,0,0,0.010850694444444444,190.65755208333331,0)" xlink:href="#aG"/><use transform="matrix(0.010850694444444444,0,0,0.010850694444444444,203.78689236111111,0)" xlink:href="#aE"/></g><g id="G"><use transform="matrix(0.010850694444444444,0,0,0.010850694444444444,0,0)" xlink:href="#aD"/><use transform="matrix(0.010850694444444444,0,0,0.010850694444444444,11.729600694444445,0)" xlink:href="#bp"/></g><g id="H"><use transform="matrix(0.010850694444444444,0,0,0.010850694444444444,0,0)" xlink:href="#aC"/><use transform="matrix(0.010850694444444444,0,0,0.010850694444444444,13.606770833333332,0)" xlink:href="#aM"/><use transform="matrix(0.010850694444444444,0,0,0.010850694444444444,26.5625,0)" xlink:href="#aN"/><use transform="matrix(0.010850694444444444,0,0,0.010850694444444444,31.944444444444443,0)" xlink:href="#aM"/><use transform="matrix(0.010850694444444444,0,0,0.010850694444444444,44.90017361111111,0)" xlink:href="#aE"/><use transform="matrix(0.010850694444444444,0,0,0.010850694444444444,51.953125,0)" xlink:href="#aM"/><use transform="matrix(0.010850694444444444,0,0,0.010850694444444444,64.90885416666667,0)" xlink:href="#bw"/><use transform="matrix(0.010850694444444444,0,0,0.010850694444444444,79.16666666666667,0)" xlink:href="#aE"/><use transform="matrix(0.010850694444444444,0,0,0.010850694444444444,86.43663194444444,0)" xlink:href="#ba"/><use transform="matrix(0.010850694444444444,0,0,0.010850694444444444,99.57682291666666,0)" xlink:href="#aC"/><use transform="matrix(0.010850694444444444,0,0,0.010850694444444444,113.18359374999997,0)" xlink:href="#aM"/><use transform="matrix(0.010850694444444444,0,0,0.010850694444444444,126.13932291666666,0)" xlink:href="#aG"/><use transform="matrix(0.010850694444444444,0,0,0.010850694444444444,139.26866319444443,0)" xlink:href="#aE"/><use transform="matrix(0.010850694444444444,0,0,0.010850694444444444,146.5386284722222,0)" xlink:href="#bm"/><use transform="matrix(0.010850694444444444,0,0,0.010850694444444444,154.6440972222222,0)" xlink:href="#bw"/><use transform="matrix(0.010850694444444444,0,0,0.010850694444444444,168.9019097222222,0)" xlink:href="#aE"/><use transform="matrix(0.010850694444444444,0,0,0.010850694444444444,176.17187499999997,0)" xlink:href="#ba"/><use transform="matrix(0.010850694444444444,0,0,0.010850694444444444,189.31206597222223,0)" xlink:href="#aC"/><use transform="matrix(0.010850694444444444,0,0,0.010850694444444444,202.91883680555554,0)" xlink:href="#aM"/><use transform="matrix(0.010850694444444444,0,0,0.010850694444444444,215.87456597222223,0)" xlink:href="#aG"/><use transform="matrix(0.010850694444444444,0,0,0.010850694444444444,229.00390624999994,0)" xlink:href="#aE"/></g><g id="I"><use transform="matrix(0.010850694444444444,0,0,0.010850694444444444,0,0)" xlink:href="#aD"/><use transform="matrix(0.010850694444444444,0,0,0.010850694444444444,11.729600694444445,0)" xlink:href="#bp"/></g><g id="J"><use transform="matrix(0.008463541666666668,0,0,0.008463541666666668,0,0)" xlink:href="#bb"/><use transform="matrix(0.008463541666666668,0,0,0.008463541666666668,11.349609375000002,0)" xlink:href="#ay"/><use transform="matrix(0.008463541666666668,0,0,0.008463541666666668,21.675130208333336,0)" xlink:href="#ax"/><use transform="matrix(0.008463541666666668,0,0,0.008463541666666668,31.382812500000004,0)" xlink:href="#ax"/><use transform="matrix(0.008463541666666668,0,0,0.008463541666666668,41.09049479166667,0)" xlink:href="#bi"/><use transform="matrix(0.008463541666666668,0,0,0.008463541666666668,45.78776041666667,0)" xlink:href="#bk"/><use transform="matrix(0.008463541666666668,0,0,0.008463541666666668,56.41796875000001,0)" xlink:href="#bf"/></g><g id="K"><use transform="matrix(0.008463541666666668,0,0,0.008463541666666668,0,0)" xlink:href="#aD"/><use transform="matrix(0.008463541666666668,0,0,0.008463541666666668,9.149088541666668,0)" xlink:href="#aF"/><use transform="matrix(0.008463541666666668,0,0,0.008463541666666668,15.945312500000004,0)" xlink:href="#aE"/><use transform="matrix(0.008463541666666668,0,0,0.008463541666666668,21.615885416666668,0)" xlink:href="#aB"/><use transform="matrix(0.008463541666666668,0,0,0.008463541666666668,25.81380208333334,0)" xlink:href="#aG"/><use transform="matrix(0.008463541666666668,0,0,0.008463541666666668,36.05468750000001,0)" xlink:href="#aH"/></g><g id="L"><use transform="matrix(0.008463541666666668,0,0,0.008463541666666668,0,0)" xlink:href="#aC"/><use transform="matrix(0.008463541666666668,0,0,0.008463541666666668,10.613281250000002,0)" xlink:href="#aK"/><use transform="matrix(0.008463541666666668,0,0,0.008463541666666668,20.346354166666675,0)" xlink:href="#aE"/><use transform="matrix(0.008463541666666668,0,0,0.008463541666666668,25.847656250000007,0)" xlink:href="#aM"/></g><path d="M645 0H180v-1490h484c435 0 692 280 692 742 0 466-257 748-711 748zM370-168h263c363 0 539-218 539-580 0-358-176-574-521-574H370v1154" id="bx"/><g id="M"><use transform="matrix(0.008463541666666668,0,0,0.008463541666666668,0,0)" xlink:href="#bx"/><use transform="matrix(0.008463541666666668,0,0,0.008463541666666668,12.509114583333336,0)" xlink:href="#aK"/><use transform="matrix(0.008463541666666668,0,0,0.008463541666666668,22.242187500000004,0)" xlink:href="#aE"/><use transform="matrix(0.008463541666666668,0,0,0.008463541666666668,27.74348958333334,0)" xlink:href="#aM"/></g><g id="N"><use transform="matrix(0.008463541666666668,0,0,0.008463541666666668,0,0)" xlink:href="#aD"/><use transform="matrix(0.008463541666666668,0,0,0.008463541666666668,9.149088541666668,0)" xlink:href="#aE"/><use transform="matrix(0.008463541666666668,0,0,0.008463541666666668,14.904296875000002,0)" xlink:href="#aK"/><use transform="matrix(0.008463541666666668,0,0,0.008463541666666668,24.63736979166667,0)" xlink:href="#aF"/><use transform="matrix(0.008463541666666668,0,0,0.008463541666666668,31.433593750000004,0)" xlink:href="#aE"/><use transform="matrix(0.008463541666666668,0,0,0.008463541666666668,37.10416666666667,0)" xlink:href="#aJ"/><use transform="matrix(0.008463541666666668,0,0,0.008463541666666668,45.00911458333334,0)" xlink:href="#aE"/><use transform="matrix(0.008463541666666668,0,0,0.008463541666666668,50.679687500000014,0)" xlink:href="#aB"/><use transform="matrix(0.008463541666666668,0,0,0.008463541666666668,54.87760416666668,0)" xlink:href="#aL"/><use transform="matrix(0.008463541666666668,0,0,0.008463541666666668,70.06119791666669,0)" xlink:href="#aM"/></g><path d="M98-1322v-168h1126v168H757V0H567v-1322H98" id="by"/><g id="O"><use transform="matrix(0.008463541666666668,0,0,0.008463541666666668,0,0)" xlink:href="#by"/><use transform="matrix(0.008463541666666668,0,0,0.008463541666666668,11.188802083333336,0)" xlink:href="#aB"/><use transform="matrix(0.008463541666666668,0,0,0.008463541666666668,15.386718750000004,0)" xlink:href="#aL"/><use transform="matrix(0.008463541666666668,0,0,0.008463541666666668,30.570312500000007,0)" xlink:href="#aM"/></g><g id="P"><use transform="matrix(0.008463541666666668,0,0,0.008463541666666668,0,0)" xlink:href="#aM"/><use transform="matrix(0.008463541666666668,0,0,0.008463541666666668,10.105468750000002,0)" xlink:href="#aG"/><use transform="matrix(0.008463541666666668,0,0,0.008463541666666668,20.346354166666675,0)" xlink:href="#aC"/><use transform="matrix(0.008463541666666668,0,0,0.008463541666666668,30.95963541666667,0)" xlink:href="#aJ"/><use transform="matrix(0.008463541666666668,0,0,0.008463541666666668,38.86458333333334,0)" xlink:href="#aE"/><use transform="matrix(0.008463541666666668,0,0,0.008463541666666668,44.535156250000014,0)" xlink:href="#aB"/><use transform="matrix(0.008463541666666668,0,0,0.008463541666666668,48.73307291666668,0)" xlink:href="#aL"/><use transform="matrix(0.008463541666666668,0,0,0.008463541666666668,63.91666666666668,0)" xlink:href="#aM"/></g><g id="Q"><use transform="matrix(0.008463541666666668,0,0,0.008463541666666668,0,0)" xlink:href="#aE"/><use transform="matrix(0.008463541666666668,0,0,0.008463541666666668,6.009114583333335,0)" xlink:href="#bo"/><use transform="matrix(0.008463541666666668,0,0,0.008463541666666668,15.750651041666666,0)" xlink:href="#aO"/><use transform="matrix(0.008463541666666668,0,0,0.008463541666666668,26.36393229166667,0)" xlink:href="#aM"/></g><g id="R"><use transform="matrix(0.008463541666666668,0,0,0.008463541666666668,0,0)" xlink:href="#bw"/><use transform="matrix(0.008463541666666668,0,0,0.008463541666666668,11.121093750000002,0)" xlink:href="#aM"/><use transform="matrix(0.008463541666666668,0,0,0.008463541666666668,21.226562500000004,0)" xlink:href="#aD"/><use transform="matrix(0.008463541666666668,0,0,0.008463541666666668,30.37565104166667,0)" xlink:href="#aD"/><use transform="matrix(0.008463541666666668,0,0,0.008463541666666668,39.52473958333335,0)" xlink:href="#aB"/><use transform="matrix(0.008463541666666668,0,0,0.008463541666666668,43.72265625000001,0)" xlink:href="#aQ"/><use transform="matrix(0.008463541666666668,0,0,0.008463541666666668,54.11588541666667,0)" xlink:href="#aG"/><use transform="matrix(0.008463541666666668,0,0,0.008463541666666668,63.171875,0)" xlink:href="#by"/><use transform="matrix(0.008463541666666668,0,0,0.008463541666666668,73.27734375,0)" xlink:href="#bo"/><use transform="matrix(0.008463541666666668,0,0,0.008463541666666668,83.01888020833333,0)" xlink:href="#aO"/><use transform="matrix(0.008463541666666668,0,0,0.008463541666666668,93.63216145833333,0)" xlink:href="#aM"/></g><path d="M135 0v-1490h581c339 0 533 192 533 485 0 204-94 351-264 424L1302 0H964L680-532H440V0H135zm305-779h220c186 0 274-77 274-226 0-150-88-233-275-233H440v459" id="bz"/><g id="S"><use transform="matrix(0.008463541666666668,0,0,0.008463541666666668,0,0)" xlink:href="#bz"/><use transform="matrix(0.008463541666666668,0,0,0.008463541666666668,11.171875000000002,0)" xlink:href="#ay"/><use transform="matrix(0.008463541666666668,0,0,0.008463541666666668,21.497395833333336,0)" xlink:href="#ax"/><use transform="matrix(0.008463541666666668,0,0,0.008463541666666668,31.205078125000004,0)" xlink:href="#bk"/><use transform="matrix(0.008463541666666668,0,0,0.008463541666666668,41.835286458333336,0)" xlink:href="#bd"/><use transform="matrix(0.008463541666666668,0,0,0.008463541666666668,52.626302083333336,0)" xlink:href="#az"/><use transform="matrix(0.008463541666666668,0,0,0.008463541666666668,59.26171875,0)" xlink:href="#bj"/><use transform="matrix(0.008463541666666668,0,0,0.008463541666666668,69.46028645833333,0)" xlink:href="#ay"/></g><g id="T"><use transform="matrix(0.008463541666666668,0,0,0.008463541666666668,0,0)" xlink:href="#aE"/><use transform="matrix(0.008463541666666668,0,0,0.008463541666666668,5.670572916666668,0)" xlink:href="#aB"/><use transform="matrix(0.008463541666666668,0,0,0.008463541666666668,9.868489583333337,0)" xlink:href="#aE"/><use transform="matrix(0.008463541666666668,0,0,0.008463541666666668,15.539062500000004,0)" xlink:href="#aN"/><use transform="matrix(0.008463541666666668,0,0,0.008463541666666668,19.736979166666675,0)" xlink:href="#aM"/></g><g id="U"><use transform="matrix(0.008463541666666668,0,0,0.008463541666666668,0,0)" xlink:href="#aC"/><use transform="matrix(0.008463541666666668,0,0,0.008463541666666668,10.613281250000002,0)" xlink:href="#aM"/><use transform="matrix(0.008463541666666668,0,0,0.008463541666666668,20.718750000000004,0)" xlink:href="#aD"/><use transform="matrix(0.008463541666666668,0,0,0.008463541666666668,29.86783854166667,0)" xlink:href="#aZ"/><use transform="matrix(0.008463541666666668,0,0,0.008463541666666668,39.77018229166667,0)" xlink:href="#aF"/><use transform="matrix(0.008463541666666668,0,0,0.008463541666666668,46.56640625000001,0)" xlink:href="#aB"/><use transform="matrix(0.008463541666666668,0,0,0.008463541666666668,50.76432291666667,0)" xlink:href="#aO"/><use transform="matrix(0.008463541666666668,0,0,0.008463541666666668,61.37760416666668,0)" xlink:href="#aE"/><use transform="matrix(0.008463541666666668,0,0,0.008463541666666668,67.04817708333334,0)" xlink:href="#aB"/><use transform="matrix(0.008463541666666668,0,0,0.008463541666666668,71.24609375000001,0)" xlink:href="#aQ"/><use transform="matrix(0.008463541666666668,0,0,0.008463541666666668,81.6393229166667,0)" xlink:href="#aG"/></g><path d="M338-670V0H158v-1490h180v566c73-149 190-208 336-208 226 0 379 139 379 422V0H872v-695c0-172-96-275-252-275-161 0-282 109-282 300" id="bA"/><g id="V"><use transform="matrix(0.008463541666666668,0,0,0.008463541666666668,0,0)" xlink:href="#aI"/><use transform="matrix(0.008463541666666668,0,0,0.008463541666666668,6.415364583333334,0)" xlink:href="#aB"/><use transform="matrix(0.008463541666666668,0,0,0.008463541666666668,10.61328125,0)" xlink:href="#aN"/><use transform="matrix(0.008463541666666668,0,0,0.008463541666666668,14.811197916666668,0)" xlink:href="#aM"/><use transform="matrix(0.008463541666666668,0,0,0.008463541666666668,24.91666666666667,0)" xlink:href="#aJ"/><use transform="matrix(0.008463541666666668,0,0,0.008463541666666668,33.40559895833334,0)" xlink:href="#aO"/><use transform="matrix(0.008463541666666668,0,0,0.008463541666666668,44.18815104166668,0)" xlink:href="#aK"/><use transform="matrix(0.008463541666666668,0,0,0.008463541666666668,53.92122395833334,0)" xlink:href="#aE"/><use transform="matrix(0.008463541666666668,0,0,0.008463541666666668,59.591796875000014,0)" xlink:href="#bA"/></g><path d="M49 0l509-1490h400L1480 0h-339l-115-346H497L386 0H49zm524-585h374c-75-213-124-402-192-666-66 268-110 453-182 666" id="bB"/><g id="W"><use transform="matrix(0.008463541666666668,0,0,0.008463541666666668,0,0)" xlink:href="#bB"/><use transform="matrix(0.008463541666666668,0,0,0.008463541666666668,12.466796875000002,0)" xlink:href="#bc"/><use transform="matrix(0.008463541666666668,0,0,0.008463541666666668,18.205078125000004,0)" xlink:href="#bc"/><use transform="matrix(0.008463541666666668,0,0,0.008463541666666668,24.38346354166667,0)" xlink:href="#ay"/><use transform="matrix(0.008463541666666668,0,0,0.008463541666666668,34.70898437500001,0)" xlink:href="#bf"/><use transform="matrix(0.008463541666666668,0,0,0.008463541666666668,45.50000000000001,0)" xlink:href="#be"/><use transform="matrix(0.008463541666666668,0,0,0.008463541666666668,56.42643229166667,0)" xlink:href="#bt"/><use transform="matrix(0.008463541666666668,0,0,0.008463541666666668,66.48958333333334,0)" xlink:href="#bf"/><use transform="matrix(0.008463541666666668,0,0,0.008463541666666668,77.28059895833334,0)" xlink:href="#bj"/><use transform="matrix(0.008463541666666668,0,0,0.008463541666666668,87.47916666666669,0)" xlink:href="#ay"/></g><g id="X"><use transform="matrix(0.008463541666666668,0,0,0.008463541666666668,0,0)" xlink:href="#aD"/><use transform="matrix(0.008463541666666668,0,0,0.008463541666666668,9.149088541666668,0)" xlink:href="#aE"/><use transform="matrix(0.008463541666666668,0,0,0.008463541666666668,14.904296875000002,0)" xlink:href="#aK"/><use transform="matrix(0.008463541666666668,0,0,0.008463541666666668,24.63736979166667,0)" xlink:href="#aE"/><use transform="matrix(0.008463541666666668,0,0,0.008463541666666668,30.307942708333336,0)" xlink:href="#ba"/><use transform="matrix(0.008463541666666668,0,0,0.008463541666666668,40.55729166666667,0)" xlink:href="#aD"/></g><path d="M180 0v-1490h908v168H370v486h669v168H370v500h727V0H180" id="bC"/><g id="Y"><use transform="matrix(0.008463541666666668,0,0,0.008463541666666668,0,0)" xlink:href="#bC"/><use transform="matrix(0.008463541666666668,0,0,0.008463541666666668,10.418619791666668,0)" xlink:href="#aG"/><use transform="matrix(0.008463541666666668,0,0,0.008463541666666668,20.659505208333336,0)" xlink:href="#ba"/><use transform="matrix(0.008463541666666668,0,0,0.008463541666666668,30.90885416666667,0)" xlink:href="#aL"/></g><path fill="#333" d="M749-1490V0H444v-1221h-10L93-980v-279l329-231h327" id="bD"/><use transform="matrix(0.008680555555555556,0,0,0.008680555555555556,0,0)" xlink:href="#bD" id="Z"/><path fill="#333" d="M342 19c-98 0-173-75-173-172s75-172 173-172 173 75 173 172S440 19 342 19" id="bE"/><path fill="#333" d="M476-652l19-284-238 159-97-168 257-125-257-125 97-170 238 159-19-284h192l-18 284 238-159 95 170-255 125 255 125-95 168-238-159 18 284H476" id="bF"/><g id="aa"><use transform="matrix(0.008680555555555556,0,0,0.008680555555555556,0,0)" xlink:href="#bD"/><use transform="matrix(0.008680555555555556,0,0,0.008680555555555556,7.664930555555556,0)" xlink:href="#bE"/><use transform="matrix(0.008680555555555556,0,0,0.008680555555555556,13.602430555555555,0)" xlink:href="#bE"/><use transform="matrix(0.008680555555555556,0,0,0.008680555555555556,19.539930555555557,0)" xlink:href="#bF"/></g><path d="M795 20C377 20 94-272 94-743c0-483 302-767 694-767 335 0 593 206 635 500h-310c-42-142-154-229-320-229-230 0-389 177-389 493s154 495 393 495c212 0 340-120 345-311H818v-232h620v186c0 391-269 628-643 628" id="bG"/><g id="ab"><use transform="matrix(0.008463541666666668,0,0,0.008463541666666668,0,0)" xlink:href="#bG"/><use transform="matrix(0.008463541666666668,0,0,0.008463541666666668,13.008463541666668,0)" xlink:href="#az"/><use transform="matrix(0.008463541666666668,0,0,0.008463541666666668,19.830078125000004,0)" xlink:href="#bt"/><use transform="matrix(0.008463541666666668,0,0,0.008463541666666668,29.89322916666667,0)" xlink:href="#be"/><use transform="matrix(0.008463541666666668,0,0,0.008463541666666668,40.81966145833335,0)" xlink:href="#ay"/></g><g id="ac"><use transform="matrix(0.008463541666666668,0,0,0.008463541666666668,0,0)" xlink:href="#aH"/><use transform="matrix(0.008463541666666668,0,0,0.008463541666666668,10.630208333333334,0)" xlink:href="#aF"/><use transform="matrix(0.008463541666666668,0,0,0.008463541666666668,17.155598958333336,0)" xlink:href="#aK"/><use transform="matrix(0.008463541666666668,0,0,0.008463541666666668,26.888671875000004,0)" xlink:href="#aC"/><use transform="matrix(0.008463541666666668,0,0,0.008463541666666668,37.50195312500001,0)" xlink:href="#aM"/></g><g id="ad"><use transform="matrix(0.008463541666666668,0,0,0.008463541666666668,0,0)" xlink:href="#aI"/><use transform="matrix(0.008463541666666668,0,0,0.008463541666666668,6.415364583333334,0)" xlink:href="#aN"/><use transform="matrix(0.008463541666666668,0,0,0.008463541666666668,10.61328125,0)" xlink:href="#aQ"/><use transform="matrix(0.008463541666666668,0,0,0.008463541666666668,21.17578125,0)" xlink:href="#aK"/><use transform="matrix(0.008463541666666668,0,0,0.008463541666666668,30.908854166666668,0)" xlink:href="#aE"/></g><g id="ae"><use transform="matrix(0.008463541666666668,0,0,0.008463541666666668,0,0)" xlink:href="#aZ"/><use transform="matrix(0.008463541666666668,0,0,0.008463541666666668,9.902343750000002,0)" xlink:href="#aQ"/><use transform="matrix(0.008463541666666668,0,0,0.008463541666666668,20.295572916666675,0)" xlink:href="#aL"/><use transform="matrix(0.008463541666666668,0,0,0.008463541666666668,35.47916666666667,0)" xlink:href="#aL"/><use transform="matrix(0.008463541666666668,0,0,0.008463541666666668,50.66276041666667,0)" xlink:href="#aM"/><use transform="matrix(0.008463541666666668,0,0,0.008463541666666668,60.76822916666668,0)" xlink:href="#aG"/><use transform="matrix(0.008463541666666668,0,0,0.008463541666666668,71.00911458333334,0)" xlink:href="#aE"/></g><path d="M65 0l393-574-370-544h210c88 136 192 297 267 435 67-142 176-302 264-435h206L661-564 1053 0H844c-94-144-206-310-287-458C484-308 366-142 273 0H65" id="bH"/><g id="af"><use transform="matrix(0.008463541666666668,0,0,0.008463541666666668,0,0)" xlink:href="#by"/><use transform="matrix(0.008463541666666668,0,0,0.008463541666666668,9.834635416666668,0)" xlink:href="#aM"/><use transform="matrix(0.008463541666666668,0,0,0.008463541666666668,19.550781250000004,0)" xlink:href="#bH"/><use transform="matrix(0.008463541666666668,0,0,0.008463541666666668,29.351562500000007,0)" xlink:href="#aE"/></g><path d="M754 19C571 19 479-89 437-179h-14V0H128v-1490h300v560h9c41-89 129-202 319-202 248 0 453 193 453 575 0 372-197 576-455 576zm-92-241c156 0 240-139 240-336 0-196-83-334-240-334-154 0-241 131-241 334 0 202 88 336 241 336" id="bI"/><path d="M127-1118h301V57c1 278-186 374-478 361V182c116 8 177-28 177-129v-1171zm151-146c-90 0-165-68-165-154 0-85 75-154 165-154s165 69 165 154c0 86-75 154-165 154" id="bJ"/><g id="ag"><use transform="matrix(0.008463541666666668,0,0,0.008463541666666668,0,0)" xlink:href="#bb"/><use transform="matrix(0.008463541666666668,0,0,0.008463541666666668,11.349609375000002,0)" xlink:href="#bd"/><use transform="matrix(0.008463541666666668,0,0,0.008463541666666668,22.140625000000004,0)" xlink:href="#bI"/><use transform="matrix(0.008463541666666668,0,0,0.008463541666666668,33.06705729166667,0)" xlink:href="#bJ"/><use transform="matrix(0.008463541666666668,0,0,0.008463541666666668,37.76432291666667,0)" xlink:href="#ay"/><use transform="matrix(0.008463541666666668,0,0,0.008463541666666668,48.08984375000001,0)" xlink:href="#bj"/><use transform="matrix(0.008463541666666668,0,0,0.008463541666666668,58.28841145833334,0)" xlink:href="#bc"/></g><path d="M677 24c-213 0-288-135-325-197h-20V0H158v-1490h180v551h14c37-59 106-193 324-193 279 0 474 222 474 576 0 356-194 580-473 580zm-27-161c209 0 317-186 317-421 0-232-105-413-317-413-206 0-314 166-314 413 0 249 111 421 314 421" id="bK"/><path d="M157-1118h181V80c1 225-123 350-364 338V252c126 9 184-48 183-172v-1198zm91-183c-68 0-125-53-125-119s57-119 125-119c69 0 126 53 126 119s-57 119-126 119" id="bL"/><g id="ah"><use transform="matrix(0.008463541666666668,0,0,0.008463541666666668,0,0)" xlink:href="#aD"/><use transform="matrix(0.008463541666666668,0,0,0.008463541666666668,9.149088541666668,0)" xlink:href="#ba"/><use transform="matrix(0.008463541666666668,0,0,0.008463541666666668,19.3984375,0)" xlink:href="#bK"/><use transform="matrix(0.008463541666666668,0,0,0.008463541666666668,30.01171875,0)" xlink:href="#bL"/><use transform="matrix(0.008463541666666668,0,0,0.008463541666666668,34.209635416666664,0)" xlink:href="#aM"/><use transform="matrix(0.008463541666666668,0,0,0.008463541666666668,44.315104166666664,0)" xlink:href="#aZ"/><use transform="matrix(0.008463541666666668,0,0,0.008463541666666668,54.217447916666664,0)" xlink:href="#aE"/></g><path fill="#333" d="M690 20C314 20 94-261 94-744c0-482 221-766 596-766 376 0 597 284 597 766 0 483-219 764-597 764zm0-253c184 0 286-184 286-511 0-328-102-514-286-514-183 0-285 187-285 514s101 511 285 511" id="bM"/><g id="ai"><use transform="matrix(0.008680555555555556,0,0,0.008680555555555556,0,0)" xlink:href="#bM"/><use transform="matrix(0.008680555555555556,0,0,0.008680555555555556,11.46701388888889,0)" xlink:href="#bE"/><use transform="matrix(0.008680555555555556,0,0,0.008680555555555556,17.40451388888889,0)" xlink:href="#bE"/><use transform="matrix(0.008680555555555556,0,0,0.008680555555555556,23.34201388888889,0)" xlink:href="#bF"/></g><path d="M174-520v-126l944-476v196L406-588v12l712 338v194" id="bN"/><path d="M1181-520L237-44v-194l712-338v-12L237-926v-196l944 476v126" id="bO"/><g id="aj"><use transform="matrix(0.010850694444444444,0,0,0.010850694444444444,0,0)" xlink:href="#bN"/><use transform="matrix(0.010850694444444444,0,0,0.010850694444444444,14.702690972222221,0)" xlink:href="#bN"/><use transform="matrix(0.010850694444444444,0,0,0.010850694444444444,29.405381944444443,0)" xlink:href="#bC"/><use transform="matrix(0.010850694444444444,0,0,0.010850694444444444,42.76258680555556,0)" xlink:href="#aG"/><use transform="matrix(0.010850694444444444,0,0,0.010850694444444444,55.89192708333333,0)" xlink:href="#ba"/><use transform="matrix(0.010850694444444444,0,0,0.010850694444444444,69.03211805555556,0)" xlink:href="#aL"/><use transform="matrix(0.010850694444444444,0,0,0.010850694444444444,88.49826388888889,0)" xlink:href="#aM"/><use transform="matrix(0.010850694444444444,0,0,0.010850694444444444,101.45399305555556,0)" xlink:href="#aF"/><use transform="matrix(0.010850694444444444,0,0,0.010850694444444444,109.81987847222224,0)" xlink:href="#aK"/><use transform="matrix(0.010850694444444444,0,0,0.010850694444444444,122.29817708333334,0)" xlink:href="#aE"/><use transform="matrix(0.010850694444444444,0,0,0.010850694444444444,129.56814236111111,0)" xlink:href="#aB"/><use transform="matrix(0.010850694444444444,0,0,0.010850694444444444,134.95008680555557,0)" xlink:href="#aQ"/><use transform="matrix(0.010850694444444444,0,0,0.010850694444444444,148.27473958333334,0)" xlink:href="#aG"/><use transform="matrix(0.010850694444444444,0,0,0.010850694444444444,161.40407986111111,0)" xlink:href="#bO"/><use transform="matrix(0.010850694444444444,0,0,0.010850694444444444,176.10677083333334,0)" xlink:href="#bO"/></g><g id="ak"><use transform="matrix(0.010850694444444444,0,0,0.010850694444444444,0,0)" xlink:href="#bw"/><use transform="matrix(0.010850694444444444,0,0,0.010850694444444444,14.2578125,0)" xlink:href="#aM"/><use transform="matrix(0.010850694444444444,0,0,0.010850694444444444,27.213541666666664,0)" xlink:href="#aD"/><use transform="matrix(0.010850694444444444,0,0,0.010850694444444444,38.94314236111111,0)" xlink:href="#aD"/><use transform="matrix(0.010850694444444444,0,0,0.010850694444444444,50.67274305555556,0)" xlink:href="#aB"/><use transform="matrix(0.010850694444444444,0,0,0.010850694444444444,56.054687499999986,0)" xlink:href="#aQ"/><use transform="matrix(0.010850694444444444,0,0,0.010850694444444444,69.37934027777777,0)" xlink:href="#aG"/><use transform="matrix(0.010850694444444444,0,0,0.010850694444444444,80.98958333333331,0)" xlink:href="#by"/><use transform="matrix(0.010850694444444444,0,0,0.010850694444444444,93.94531249999997,0)" xlink:href="#bo"/><use transform="matrix(0.010850694444444444,0,0,0.010850694444444444,106.43446180555556,0)" xlink:href="#aO"/><use transform="matrix(0.010850694444444444,0,0,0.010850694444444444,120.04123263888887,0)" xlink:href="#aM"/></g><path d="M783 20c-382 0-661-292-661-764 0-473 279-766 661-766 302 0 548 182 601 489h-190c-42-204-217-313-411-313-268 0-476 208-476 590 0 381 209 588 476 588 195 0 369-110 411-313h190c-52 303-296 489-601 489" id="bP"/><g id="al"><use transform="matrix(0.010850694444444444,0,0,0.010850694444444444,0,0)" xlink:href="#bP"/><use transform="matrix(0.010850694444444444,0,0,0.010850694444444444,16.23263888888889,0)" xlink:href="#aQ"/><use transform="matrix(0.010850694444444444,0,0,0.010850694444444444,29.557291666666664,0)" xlink:href="#ba"/><use transform="matrix(0.010850694444444444,0,0,0.010850694444444444,42.697482638888886,0)" xlink:href="#aF"/><use transform="matrix(0.010850694444444444,0,0,0.010850694444444444,51.06336805555556,0)" xlink:href="#aD"/></g><g id="am"><use transform="matrix(0.010850694444444444,0,0,0.010850694444444444,0,0)" xlink:href="#bC"/><use transform="matrix(0.010850694444444444,0,0,0.010850694444444444,13.35720486111111,0)" xlink:href="#bH"/><use transform="matrix(0.010850694444444444,0,0,0.010850694444444444,25.48828125,0)" xlink:href="#aK"/><use transform="matrix(0.010850694444444444,0,0,0.010850694444444444,37.966579861111114,0)" xlink:href="#aL"/></g><g id="an"><use transform="matrix(0.010850694444444444,0,0,0.010850694444444444,0,0)" xlink:href="#bn"/><use transform="matrix(0.010850694444444444,0,0,0.010850694444444444,15.33203125,0)" xlink:href="#aZ"/><use transform="matrix(0.010850694444444444,0,0,0.010850694444444444,28.02734375,0)" xlink:href="#aE"/><use transform="matrix(0.010850694444444444,0,0,0.010850694444444444,35.29730902777778,0)" xlink:href="#aB"/><use transform="matrix(0.010850694444444444,0,0,0.010850694444444444,40.67925347222222,0)" xlink:href="#bv"/><use transform="matrix(0.010850694444444444,0,0,0.010850694444444444,53.16840277777778,0)" xlink:href="#aB"/><use transform="matrix(0.010850694444444444,0,0,0.010850694444444444,58.55034722222222,0)" xlink:href="#aE"/><use transform="matrix(0.010850694444444444,0,0,0.010850694444444444,66.25434027777777,0)" xlink:href="#bo"/></g><g id="ao"><use transform="matrix(0.010850694444444444,0,0,0.010850694444444444,0,0)" xlink:href="#bq"/><use transform="matrix(0.010850694444444444,0,0,0.010850694444444444,13.975694444444445,0)" xlink:href="#aQ"/><use transform="matrix(0.010850694444444444,0,0,0.010850694444444444,27.30034722222222,0)" xlink:href="#aN"/><use transform="matrix(0.010850694444444444,0,0,0.010850694444444444,32.682291666666664,0)" xlink:href="#aM"/><use transform="matrix(0.010850694444444444,0,0,0.010850694444444444,43.90190972222222,0)" xlink:href="#by"/><use transform="matrix(0.010850694444444444,0,0,0.010850694444444444,56.8576388888889,0)" xlink:href="#bo"/><use transform="matrix(0.010850694444444444,0,0,0.010850694444444444,69.34678819444444,0)" xlink:href="#aO"/><use transform="matrix(0.010850694444444444,0,0,0.010850694444444444,82.95355902777777,0)" xlink:href="#aM"/></g><g id="ap"><use transform="matrix(0.010850694444444444,0,0,0.010850694444444444,0,0)" xlink:href="#bx"/><use transform="matrix(0.010850694444444444,0,0,0.010850694444444444,16.03732638888889,0)" xlink:href="#aB"/><use transform="matrix(0.010850694444444444,0,0,0.010850694444444444,21.419270833333336,0)" xlink:href="#aF"/><use transform="matrix(0.010850694444444444,0,0,0.010850694444444444,29.416232638888893,0)" xlink:href="#aM"/><use transform="matrix(0.010850694444444444,0,0,0.010850694444444444,42.37196180555556,0)" xlink:href="#aZ"/><use transform="matrix(0.010850694444444444,0,0,0.010850694444444444,55.06727430555556,0)" xlink:href="#aE"/><use transform="matrix(0.010850694444444444,0,0,0.010850694444444444,62.33723958333333,0)" xlink:href="#aB"/><use transform="matrix(0.010850694444444444,0,0,0.010850694444444444,67.71918402777779,0)" xlink:href="#aQ"/><use transform="matrix(0.010850694444444444,0,0,0.010850694444444444,81.04383680555556,0)" xlink:href="#aG"/></g><g id="aq"><use transform="matrix(0.010850694444444444,0,0,0.010850694444444444,0,0)" xlink:href="#bw"/><use transform="matrix(0.010850694444444444,0,0,0.010850694444444444,14.2578125,0)" xlink:href="#aE"/><use transform="matrix(0.010850694444444444,0,0,0.010850694444444444,21.52777777777778,0)" xlink:href="#ba"/><use transform="matrix(0.010850694444444444,0,0,0.010850694444444444,34.66796875,0)" xlink:href="#aC"/><use transform="matrix(0.010850694444444444,0,0,0.010850694444444444,48.27473958333333,0)" xlink:href="#aM"/><use transform="matrix(0.010850694444444444,0,0,0.010850694444444444,61.23046875,0)" xlink:href="#aG"/><use transform="matrix(0.010850694444444444,0,0,0.010850694444444444,74.35980902777777,0)" xlink:href="#aE"/></g><g id="ar"><use transform="matrix(0.010850694444444444,0,0,0.010850694444444444,0,0)" xlink:href="#by"/><use transform="matrix(0.010850694444444444,0,0,0.010850694444444444,12.608506944444445,0)" xlink:href="#aM"/><use transform="matrix(0.010850694444444444,0,0,0.010850694444444444,25.78125,0)" xlink:href="#aK"/><use transform="matrix(0.010850694444444444,0,0,0.010850694444444444,38.259548611111114,0)" xlink:href="#aZ"/><use transform="matrix(0.010850694444444444,0,0,0.010850694444444444,50.95486111111112,0)" xlink:href="#bA"/><use transform="matrix(0.010850694444444444,0,0,0.010850694444444444,64.09505208333334,0)" xlink:href="#aM"/><use transform="matrix(0.010850694444444444,0,0,0.010850694444444444,77.05078125000001,0)" xlink:href="#aF"/></g><path d="M75-1237v-253h1217v253H837V0H531v-1237H75" id="bQ"/><path d="M428-647V0H128v-1490h294v586c65-146 175-228 341-228 232 0 385 159 385 421V0H847v-659c0-139-76-222-202-222-128 0-217 86-217 234" id="bR"/><g id="as"><use transform="matrix(0.008463541666666668,0,0,0.008463541666666668,0,0)" xlink:href="#bQ"/><use transform="matrix(0.008463541666666668,0,0,0.008463541666666668,10.215494791666668,0)" xlink:href="#ay"/><use transform="matrix(0.008463541666666668,0,0,0.008463541666666668,20.710286458333336,0)" xlink:href="#bt"/><use transform="matrix(0.008463541666666668,0,0,0.008463541666666668,30.773437500000004,0)" xlink:href="#bj"/><use transform="matrix(0.008463541666666668,0,0,0.008463541666666668,40.972005208333336,0)" xlink:href="#bR"/><use transform="matrix(0.008463541666666668,0,0,0.008463541666666668,51.763020833333336,0)" xlink:href="#ay"/><use transform="matrix(0.008463541666666668,0,0,0.008463541666666668,62.08854166666668,0)" xlink:href="#az"/></g><g id="at"><use transform="matrix(0.010850694444444444,0,0,0.010850694444444444,0,0)" xlink:href="#aR"/><use transform="matrix(0.010850694444444444,0,0,0.010850694444444444,16.57986111111111,0)" xlink:href="#aM"/><use transform="matrix(0.010850694444444444,0,0,0.010850694444444444,29.535590277777775,0)" xlink:href="#aG"/><use transform="matrix(0.010850694444444444,0,0,0.010850694444444444,42.66493055555556,0)" xlink:href="#aC"/><use transform="matrix(0.010850694444444444,0,0,0.010850694444444444,56.271701388888886,0)" xlink:href="#aM"/><use transform="matrix(0.010850694444444444,0,0,0.010850694444444444,69.22743055555556,0)" xlink:href="#aF"/></g><path d="M180 0v-1490h270l367 940c28 72 75 218 110 339 35-117 81-264 110-339l362-940h271V0h-187c2-448-5-837 7-1287-157 497-311 829-483 1287H842C666-458 514-784 354-1284c12 438 5 843 7 1284H180" id="bS"/><g id="au"><use transform="matrix(0.010850694444444444,0,0,0.010850694444444444,0,0)" xlink:href="#bS"/><use transform="matrix(0.010850694444444444,0,0,0.010850694444444444,20.07378472222222,0)" xlink:href="#aK"/><use transform="matrix(0.010850694444444444,0,0,0.010850694444444444,32.55208333333333,0)" xlink:href="#aN"/><use transform="matrix(0.010850694444444444,0,0,0.010850694444444444,37.93402777777777,0)" xlink:href="#aM"/></g><path d="M458 0L52-1490h194c108 439 233 855 324 1313 92-459 221-873 331-1313h216c110 438 234 854 330 1307 92-455 216-869 323-1307h196L1558 0h-221l-256-944c-26-95-50-200-73-331-22 122-44 223-73 331L680 0H458" id="bT"/><g id="av"><use transform="matrix(0.010850694444444444,0,0,0.010850694444444444,0,0)" xlink:href="#bT"/><use transform="matrix(0.010850694444444444,0,0,0.010850694444444444,20.768229166666668,0)" xlink:href="#aQ"/><use transform="matrix(0.010850694444444444,0,0,0.010850694444444444,34.09288194444444,0)" xlink:href="#aL"/><use transform="matrix(0.010850694444444444,0,0,0.010850694444444444,53.55902777777778,0)" xlink:href="#aM"/><use transform="matrix(0.010850694444444444,0,0,0.010850694444444444,66.51475694444444,0)" xlink:href="#aG"/></g></defs></g></svg>